<svg xmlns="http://www.w3.org/2000/svg" xmlns:xlink="http://www.w3.org/1999/xlink" width="500" zoomAndPan="magnify" viewBox="0 0 375 374.999991" height="500" preserveAspectRatio="xMidYMid meet" version="1.2"><defs><clipPath id="efdf46c2a9"><path d="M 267 165 L 289 165 L 289 187 L 267 187 Z M 267 165 "/></clipPath><clipPath id="d53c32bd8a"><path d="M 263.527344 168.453125 L 278.398438 154.707031 L 298.761719 176.738281 L 283.890625 190.484375 Z M 263.527344 168.453125 "/></clipPath><clipPath id="7de601afb8"><path d="M 263.527344 168.453125 L 278.398438 154.707031 L 298.761719 176.738281 L 283.890625 190.484375 Z M 263.527344 168.453125 "/></clipPath><clipPath id="36ab4c906b"><path d="M 278 155 L 300 155 L 300 177 L 278 177 Z M 278 155 "/></clipPath><clipPath id="1e4dfb981c"><path d="M 274.199219 158.589844 L 289.070312 144.84375 L 309.429688 166.875 L 294.558594 180.621094 Z M 274.199219 158.589844 "/></clipPath><clipPath id="828b089ac2"><path d="M 274.199219 158.589844 L 289.070312 144.84375 L 309.429688 166.875 L 294.558594 180.621094 Z M 274.199219 158.589844 "/></clipPath></defs><g id="a87e525b8d"><g clip-rule="nonzero" clip-path="url(#efdf46c2a9)"><g clip-rule="nonzero" clip-path="url(#d53c32bd8a)"><g clip-rule="nonzero" clip-path="url(#7de601afb8)"><path style=" stroke:none;fill-rule:nonzero;fill:#00bf63;fill-opacity:1;" d="M 288.585938 166.007812 L 270.667969 165.210938 C 267.207031 165.058594 266.621094 171.800781 270.722656 171.910156 L 281.875 172.214844 L 281.023438 183.433594 C 280.761719 186.851562 287.425781 187.210938 287.617188 183.738281 Z M 288.585938 166.007812 "/></g></g></g><g clip-rule="nonzero" clip-path="url(#36ab4c906b)"><g clip-rule="nonzero" clip-path="url(#1e4dfb981c)"><g clip-rule="nonzero" clip-path="url(#828b089ac2)"><path style=" stroke:none;fill-rule:nonzero;fill:#00bf63;fill-opacity:1;" d="M 299.257812 156.144531 L 281.339844 155.351562 C 277.878906 155.195312 277.292969 161.9375 281.394531 162.050781 L 292.542969 162.351562 L 291.691406 173.570312 C 291.433594 176.988281 298.097656 177.347656 298.285156 173.875 Z M 299.257812 156.144531 "/></g></g></g><g style="fill:#000000;fill-opacity:1;"><g transform="translate(79.392649, 206.560635)"><path style="stroke:none" d="M 2.046875 0 L 2.046875 -2.25 L 2.71875 -2.25 C 3.332031 -2.25 3.90625 -2.289062 4.4375 -2.375 C 4.96875 -2.46875 5.429688 -2.648438 5.828125 -2.921875 C 6.234375 -3.191406 6.550781 -3.578125 6.78125 -4.078125 C 7.007812 -4.585938 7.125 -5.265625 7.125 -6.109375 L 7.125 -32.40625 C 7.125 -33.195312 7.003906 -33.832031 6.765625 -34.3125 C 6.535156 -34.789062 6.21875 -35.160156 5.8125 -35.421875 C 5.414062 -35.679688 4.945312 -35.847656 4.40625 -35.921875 C 3.875 -36.003906 3.3125 -36.046875 2.71875 -36.046875 L 2.046875 -36.046875 L 2.046875 -38.296875 L 17.109375 -38.296875 C 19.359375 -38.296875 21.3125 -38.035156 22.96875 -37.515625 C 24.632812 -37.003906 26.007812 -36.265625 27.09375 -35.296875 C 28.175781 -34.328125 28.984375 -33.148438 29.515625 -31.765625 C 30.046875 -30.390625 30.3125 -28.832031 30.3125 -27.09375 C 30.3125 -25.5 30.0625 -23.96875 29.5625 -22.5 C 29.0625 -21.03125 28.242188 -19.734375 27.109375 -18.609375 C 25.972656 -17.484375 24.488281 -16.582031 22.65625 -15.90625 C 20.820312 -15.238281 18.578125 -14.90625 15.921875 -14.90625 L 12.546875 -14.90625 L 12.546875 -5.84375 C 12.546875 -5.050781 12.660156 -4.414062 12.890625 -3.9375 C 13.128906 -3.457031 13.453125 -3.09375 13.859375 -2.84375 C 14.265625 -2.601562 14.734375 -2.441406 15.265625 -2.359375 C 15.796875 -2.285156 16.359375 -2.25 16.953125 -2.25 L 18.734375 -2.25 L 18.734375 0 Z M 12.546875 -17.453125 L 15.40625 -17.453125 C 17.03125 -17.453125 18.414062 -17.617188 19.5625 -17.953125 C 20.71875 -18.296875 21.660156 -18.847656 22.390625 -19.609375 C 23.128906 -20.367188 23.664062 -21.347656 24 -22.546875 C 24.34375 -23.742188 24.515625 -25.1875 24.515625 -26.875 C 24.515625 -28.382812 24.363281 -29.691406 24.0625 -30.796875 C 23.769531 -31.910156 23.289062 -32.832031 22.625 -33.5625 C 21.96875 -34.289062 21.109375 -34.832031 20.046875 -35.1875 C 18.992188 -35.550781 17.707031 -35.734375 16.1875 -35.734375 L 12.546875 -35.734375 Z M 12.546875 -17.453125 "/></g></g><g style="fill:#000000;fill-opacity:1;"><g transform="translate(109.764397, 206.560635)"><path style="stroke:none" d="M 17.265625 0 L 1.78125 0 L 1.78125 -2.25 L 1.9375 -2.25 C 2.550781 -2.25 3.125 -2.289062 3.65625 -2.375 C 4.1875 -2.46875 4.648438 -2.648438 5.046875 -2.921875 C 5.441406 -3.191406 5.753906 -3.578125 5.984375 -4.078125 C 6.222656 -4.585938 6.34375 -5.265625 6.34375 -6.109375 L 6.34375 -22.84375 C 6.34375 -23.632812 6.222656 -24.269531 5.984375 -24.75 C 5.753906 -25.226562 5.4375 -25.597656 5.03125 -25.859375 C 4.625 -26.117188 4.15625 -26.289062 3.625 -26.375 C 3.09375 -26.46875 2.53125 -26.515625 1.9375 -26.515625 L 1.78125 -26.515625 L 1.78125 -28.765625 L 10.03125 -28.765625 L 11.0625 -23.453125 L 11.3125 -23.453125 C 11.664062 -24.253906 12.023438 -25.007812 12.390625 -25.71875 C 12.753906 -26.425781 13.203125 -27.046875 13.734375 -27.578125 C 14.273438 -28.109375 14.9375 -28.523438 15.71875 -28.828125 C 16.507812 -29.140625 17.5 -29.296875 18.6875 -29.296875 C 20.632812 -29.296875 22.082031 -28.953125 23.03125 -28.265625 C 23.988281 -27.585938 24.46875 -26.628906 24.46875 -25.390625 C 24.46875 -24.828125 24.375 -24.3125 24.1875 -23.84375 C 24.007812 -23.375 23.71875 -22.96875 23.3125 -22.625 C 22.914062 -22.28125 22.398438 -22.015625 21.765625 -21.828125 C 21.140625 -21.648438 20.375 -21.5625 19.46875 -21.5625 C 19.46875 -23.039062 19.253906 -24.109375 18.828125 -24.765625 C 18.410156 -25.421875 17.679688 -25.75 16.640625 -25.75 C 15.972656 -25.75 15.375 -25.5625 14.84375 -25.1875 C 14.320312 -24.8125 13.863281 -24.3125 13.46875 -23.6875 C 13.082031 -23.070312 12.753906 -22.363281 12.484375 -21.5625 C 12.210938 -20.757812 11.992188 -19.929688 11.828125 -19.078125 C 11.660156 -18.234375 11.539062 -17.390625 11.46875 -16.546875 C 11.40625 -15.710938 11.375 -14.957031 11.375 -14.28125 L 11.375 -5.84375 C 11.375 -5.050781 11.488281 -4.414062 11.71875 -3.9375 C 11.957031 -3.457031 12.273438 -3.09375 12.671875 -2.84375 C 13.078125 -2.601562 13.546875 -2.441406 14.078125 -2.359375 C 14.609375 -2.285156 15.171875 -2.25 15.765625 -2.25 L 17.265625 -2.25 Z M 17.265625 0 "/></g></g><g style="fill:#000000;fill-opacity:1;"><g transform="translate(133.009406, 206.560635)"><path style="stroke:none" d="M 14.75 -26.40625 C 12.757812 -26.40625 11.226562 -25.597656 10.15625 -23.984375 C 9.082031 -22.367188 8.445312 -20.007812 8.25 -16.90625 L 20.59375 -16.90625 C 20.59375 -18.3125 20.488281 -19.597656 20.28125 -20.765625 C 20.070312 -21.941406 19.738281 -22.945312 19.28125 -23.78125 C 18.820312 -24.625 18.222656 -25.269531 17.484375 -25.71875 C 16.742188 -26.175781 15.832031 -26.40625 14.75 -26.40625 Z M 15.40625 0.53125 C 13.46875 0.53125 11.722656 0.203125 10.171875 -0.453125 C 8.628906 -1.109375 7.320312 -2.066406 6.25 -3.328125 C 5.1875 -4.585938 4.367188 -6.128906 3.796875 -7.953125 C 3.234375 -9.773438 2.953125 -11.847656 2.953125 -14.171875 C 2.953125 -19.179688 3.984375 -22.953125 6.046875 -25.484375 C 8.109375 -28.023438 11.046875 -29.296875 14.859375 -29.296875 C 16.585938 -29.296875 18.140625 -29.023438 19.515625 -28.484375 C 20.898438 -27.941406 22.070312 -27.128906 23.03125 -26.046875 C 23.988281 -24.972656 24.722656 -23.640625 25.234375 -22.046875 C 25.753906 -20.453125 26.015625 -18.597656 26.015625 -16.484375 L 26.015625 -14.015625 L 8.140625 -14.015625 C 8.179688 -12.054688 8.378906 -10.375 8.734375 -8.96875 C 9.097656 -7.5625 9.613281 -6.40625 10.28125 -5.5 C 10.957031 -4.59375 11.78125 -3.925781 12.75 -3.5 C 13.726562 -3.070312 14.859375 -2.859375 16.140625 -2.859375 C 17.066406 -2.859375 17.925781 -2.960938 18.71875 -3.171875 C 19.507812 -3.378906 20.226562 -3.65625 20.875 -4 C 21.519531 -4.351562 22.09375 -4.753906 22.59375 -5.203125 C 23.09375 -5.648438 23.5 -6.117188 23.8125 -6.609375 C 24.0625 -6.492188 24.296875 -6.269531 24.515625 -5.9375 C 24.734375 -5.613281 24.84375 -5.222656 24.84375 -4.765625 C 24.84375 -4.222656 24.648438 -3.640625 24.265625 -3.015625 C 23.878906 -2.398438 23.289062 -1.832031 22.5 -1.3125 C 21.71875 -0.789062 20.738281 -0.351562 19.5625 0 C 18.382812 0.351562 17 0.53125 15.40625 0.53125 Z M 15.40625 0.53125 "/></g></g><g style="fill:#000000;fill-opacity:1;"><g transform="translate(159.686772, 206.560635)"><path style="stroke:none" d="M 27.140625 -5.890625 C 27.140625 -5.109375 27.253906 -4.476562 27.484375 -4 C 27.722656 -3.519531 28.046875 -3.144531 28.453125 -2.875 C 28.859375 -2.613281 29.328125 -2.441406 29.859375 -2.359375 C 30.390625 -2.285156 30.953125 -2.25 31.546875 -2.25 L 31.984375 -2.25 L 31.984375 0 L 22.890625 0 L 22.328125 -4.828125 L 22.109375 -4.828125 C 21.710938 -4.003906 21.253906 -3.265625 20.734375 -2.609375 C 20.222656 -1.953125 19.632812 -1.390625 18.96875 -0.921875 C 18.300781 -0.460938 17.546875 -0.109375 16.703125 0.140625 C 15.867188 0.398438 14.929688 0.53125 13.890625 0.53125 C 12.117188 0.53125 10.550781 0.238281 9.1875 -0.34375 C 7.832031 -0.9375 6.691406 -1.835938 5.765625 -3.046875 C 4.835938 -4.265625 4.132812 -5.804688 3.65625 -7.671875 C 3.1875 -9.546875 2.953125 -11.765625 2.953125 -14.328125 C 2.953125 -16.910156 3.1875 -19.144531 3.65625 -21.03125 C 4.132812 -22.925781 4.835938 -24.484375 5.765625 -25.703125 C 6.691406 -26.921875 7.832031 -27.820312 9.1875 -28.40625 C 10.550781 -29 12.117188 -29.296875 13.890625 -29.296875 C 14.921875 -29.296875 15.851562 -29.179688 16.6875 -28.953125 C 17.53125 -28.722656 18.285156 -28.398438 18.953125 -27.984375 C 19.628906 -27.566406 20.226562 -27.066406 20.75 -26.484375 C 21.269531 -25.910156 21.722656 -25.273438 22.109375 -24.578125 L 22.421875 -24.578125 C 22.367188 -25.453125 22.316406 -26.269531 22.265625 -27.03125 C 22.234375 -27.695312 22.195312 -28.359375 22.15625 -29.015625 C 22.125 -29.671875 22.109375 -30.15625 22.109375 -30.46875 L 22.109375 -34.875 C 22.109375 -35.65625 21.988281 -36.285156 21.75 -36.765625 C 21.519531 -37.242188 21.203125 -37.613281 20.796875 -37.875 C 20.398438 -38.144531 19.929688 -38.316406 19.390625 -38.390625 C 18.859375 -38.472656 18.296875 -38.515625 17.703125 -38.515625 L 17.265625 -38.515625 L 17.265625 -40.765625 L 27.140625 -40.765625 Z M 14.796875 -2.90625 C 16.203125 -2.90625 17.367188 -3.132812 18.296875 -3.59375 C 19.234375 -4.0625 19.984375 -4.765625 20.546875 -5.703125 C 21.117188 -6.648438 21.519531 -7.835938 21.75 -9.265625 C 21.988281 -10.703125 22.109375 -12.390625 22.109375 -14.328125 C 22.109375 -16.203125 21.988281 -17.851562 21.75 -19.28125 C 21.519531 -20.71875 21.117188 -21.921875 20.546875 -22.890625 C 19.984375 -23.859375 19.226562 -24.59375 18.28125 -25.09375 C 17.34375 -25.601562 16.164062 -25.859375 14.75 -25.859375 C 13.582031 -25.859375 12.578125 -25.601562 11.734375 -25.09375 C 10.898438 -24.59375 10.210938 -23.851562 9.671875 -22.875 C 9.140625 -21.894531 8.75 -20.679688 8.5 -19.234375 C 8.257812 -17.796875 8.140625 -16.144531 8.140625 -14.28125 C 8.140625 -10.46875 8.65625 -7.617188 9.6875 -5.734375 C 10.71875 -3.847656 12.421875 -2.90625 14.796875 -2.90625 Z M 14.796875 -2.90625 "/></g></g><g style="fill:#000000;fill-opacity:1;"><g transform="translate(190.582544, 206.560635)"><path style="stroke:none" d="M 1.9375 -2.25 C 2.53125 -2.25 3.09375 -2.285156 3.625 -2.359375 C 4.15625 -2.441406 4.625 -2.601562 5.03125 -2.84375 C 5.4375 -3.09375 5.753906 -3.457031 5.984375 -3.9375 C 6.222656 -4.414062 6.34375 -5.050781 6.34375 -5.84375 L 6.34375 -22.84375 C 6.34375 -23.632812 6.222656 -24.269531 5.984375 -24.75 C 5.753906 -25.226562 5.4375 -25.597656 5.03125 -25.859375 C 4.625 -26.117188 4.15625 -26.289062 3.625 -26.375 C 3.09375 -26.46875 2.53125 -26.515625 1.9375 -26.515625 L 1.78125 -26.515625 L 1.78125 -28.765625 L 11.375 -28.765625 L 11.375 -6.109375 C 11.375 -5.265625 11.488281 -4.585938 11.71875 -4.078125 C 11.957031 -3.578125 12.269531 -3.191406 12.65625 -2.921875 C 13.050781 -2.648438 13.519531 -2.46875 14.0625 -2.375 C 14.601562 -2.289062 15.171875 -2.25 15.765625 -2.25 L 16.484375 -2.25 L 16.484375 0 L 1.234375 0 L 1.234375 -2.25 Z M 5.578125 -37.46875 C 5.578125 -38.09375 5.65625 -38.613281 5.8125 -39.03125 C 5.96875 -39.457031 6.1875 -39.800781 6.46875 -40.0625 C 6.75 -40.320312 7.070312 -40.503906 7.4375 -40.609375 C 7.800781 -40.710938 8.203125 -40.765625 8.640625 -40.765625 C 9.066406 -40.765625 9.460938 -40.710938 9.828125 -40.609375 C 10.191406 -40.503906 10.507812 -40.320312 10.78125 -40.0625 C 11.050781 -39.800781 11.269531 -39.457031 11.4375 -39.03125 C 11.601562 -38.613281 11.6875 -38.09375 11.6875 -37.46875 C 11.6875 -36.832031 11.601562 -36.304688 11.4375 -35.890625 C 11.269531 -35.472656 11.050781 -35.132812 10.78125 -34.875 C 10.507812 -34.613281 10.191406 -34.425781 9.828125 -34.3125 C 9.460938 -34.195312 9.066406 -34.140625 8.640625 -34.140625 C 8.203125 -34.140625 7.800781 -34.195312 7.4375 -34.3125 C 7.070312 -34.425781 6.75 -34.613281 6.46875 -34.875 C 6.1875 -35.132812 5.96875 -35.472656 5.8125 -35.890625 C 5.65625 -36.304688 5.578125 -36.832031 5.578125 -37.46875 Z M 5.578125 -37.46875 "/></g></g><g style="fill:#000000;fill-opacity:1;"><g transform="translate(205.705167, 206.560635)"><path style="stroke:none" d="M 15.203125 0.53125 C 13.410156 0.53125 11.765625 0.253906 10.265625 -0.296875 C 8.765625 -0.847656 7.472656 -1.71875 6.390625 -2.90625 C 5.304688 -4.09375 4.460938 -5.613281 3.859375 -7.46875 C 3.253906 -9.332031 2.953125 -11.582031 2.953125 -14.21875 C 2.953125 -17.082031 3.253906 -19.476562 3.859375 -21.40625 C 4.460938 -23.34375 5.300781 -24.894531 6.375 -26.0625 C 7.445312 -27.238281 8.710938 -28.070312 10.171875 -28.5625 C 11.628906 -29.050781 13.207031 -29.296875 14.90625 -29.296875 C 16.019531 -29.296875 17.128906 -29.1875 18.234375 -28.96875 C 19.347656 -28.75 20.347656 -28.410156 21.234375 -27.953125 C 22.128906 -27.503906 22.859375 -26.929688 23.421875 -26.234375 C 23.984375 -25.546875 24.265625 -24.738281 24.265625 -23.8125 C 24.265625 -22.570312 23.859375 -21.695312 23.046875 -21.1875 C 22.242188 -20.6875 21.050781 -20.4375 19.46875 -20.4375 C 19.46875 -21.269531 19.394531 -22.0625 19.25 -22.8125 C 19.113281 -23.570312 18.875 -24.234375 18.53125 -24.796875 C 18.195312 -25.367188 17.734375 -25.816406 17.140625 -26.140625 C 16.554688 -26.460938 15.8125 -26.625 14.90625 -26.625 C 13.875 -26.625 12.941406 -26.429688 12.109375 -26.046875 C 11.285156 -25.660156 10.578125 -24.992188 9.984375 -24.046875 C 9.390625 -23.109375 8.929688 -21.84375 8.609375 -20.25 C 8.296875 -18.664062 8.140625 -16.675781 8.140625 -14.28125 C 8.140625 -10.46875 8.773438 -7.625 10.046875 -5.75 C 11.316406 -3.882812 13.390625 -2.953125 16.265625 -2.953125 C 17.929688 -2.953125 19.382812 -3.300781 20.625 -4 C 21.863281 -4.707031 22.785156 -5.609375 23.390625 -6.703125 C 23.648438 -6.492188 23.867188 -6.210938 24.046875 -5.859375 C 24.222656 -5.515625 24.3125 -5.097656 24.3125 -4.609375 C 24.3125 -3.992188 24.117188 -3.378906 23.734375 -2.765625 C 23.347656 -2.160156 22.773438 -1.613281 22.015625 -1.125 C 21.253906 -0.632812 20.304688 -0.238281 19.171875 0.0625 C 18.035156 0.375 16.710938 0.53125 15.203125 0.53125 Z M 15.203125 0.53125 "/></g></g><g style="fill:#000000;fill-opacity:1;"><g transform="translate(230.076823, 206.560635)"><path style="stroke:none" d="M 14.21875 -2.3125 C 14.875 -2.3125 15.46875 -2.34375 16 -2.40625 C 16.539062 -2.476562 17.09375 -2.566406 17.65625 -2.671875 L 17.65625 -0.3125 C 17.425781 -0.207031 17.128906 -0.101562 16.765625 0 C 16.398438 0.101562 16.003906 0.191406 15.578125 0.265625 C 15.148438 0.347656 14.695312 0.410156 14.21875 0.453125 C 13.75 0.503906 13.304688 0.53125 12.890625 0.53125 C 11.523438 0.53125 10.351562 0.382812 9.375 0.09375 C 8.394531 -0.195312 7.59375 -0.664062 6.96875 -1.3125 C 6.34375 -1.957031 5.875 -2.8125 5.5625 -3.875 C 5.257812 -4.9375 5.109375 -6.238281 5.109375 -7.78125 L 5.109375 -25.703125 L 1.015625 -25.703125 L 1.015625 -27.84375 C 1.660156 -27.84375 2.375 -27.972656 3.15625 -28.234375 C 3.9375 -28.503906 4.625 -28.941406 5.21875 -29.546875 C 5.820312 -30.210938 6.3125 -31.003906 6.6875 -31.921875 C 7.0625 -32.835938 7.390625 -33.988281 7.671875 -35.375 L 10.140625 -35.375 L 10.140625 -28.765625 L 17.15625 -28.765625 L 17.15625 -25.703125 L 10.140625 -25.703125 L 10.140625 -7.625 C 10.140625 -5.789062 10.507812 -4.445312 11.25 -3.59375 C 11.988281 -2.738281 12.976562 -2.3125 14.21875 -2.3125 Z M 14.21875 -2.3125 "/></g></g><g style="fill:#000000;fill-opacity:1;"><g transform="translate(246.928728, 206.560635)"><path style="stroke:none" d="M 17.265625 0 L 1.78125 0 L 1.78125 -2.25 L 1.9375 -2.25 C 2.550781 -2.25 3.125 -2.289062 3.65625 -2.375 C 4.1875 -2.46875 4.648438 -2.648438 5.046875 -2.921875 C 5.441406 -3.191406 5.753906 -3.578125 5.984375 -4.078125 C 6.222656 -4.585938 6.34375 -5.265625 6.34375 -6.109375 L 6.34375 -22.84375 C 6.34375 -23.632812 6.222656 -24.269531 5.984375 -24.75 C 5.753906 -25.226562 5.4375 -25.597656 5.03125 -25.859375 C 4.625 -26.117188 4.15625 -26.289062 3.625 -26.375 C 3.09375 -26.46875 2.53125 -26.515625 1.9375 -26.515625 L 1.78125 -26.515625 L 1.78125 -28.765625 L 10.03125 -28.765625 L 11.0625 -23.453125 L 11.3125 -23.453125 C 11.664062 -24.253906 12.023438 -25.007812 12.390625 -25.71875 C 12.753906 -26.425781 13.203125 -27.046875 13.734375 -27.578125 C 14.273438 -28.109375 14.9375 -28.523438 15.71875 -28.828125 C 16.507812 -29.140625 17.5 -29.296875 18.6875 -29.296875 C 20.632812 -29.296875 22.082031 -28.953125 23.03125 -28.265625 C 23.988281 -27.585938 24.46875 -26.628906 24.46875 -25.390625 C 24.46875 -24.828125 24.375 -24.3125 24.1875 -23.84375 C 24.007812 -23.375 23.71875 -22.96875 23.3125 -22.625 C 22.914062 -22.28125 22.398438 -22.015625 21.765625 -21.828125 C 21.140625 -21.648438 20.375 -21.5625 19.46875 -21.5625 C 19.46875 -23.039062 19.253906 -24.109375 18.828125 -24.765625 C 18.410156 -25.421875 17.679688 -25.75 16.640625 -25.75 C 15.972656 -25.75 15.375 -25.5625 14.84375 -25.1875 C 14.320312 -24.8125 13.863281 -24.3125 13.46875 -23.6875 C 13.082031 -23.070312 12.753906 -22.363281 12.484375 -21.5625 C 12.210938 -20.757812 11.992188 -19.929688 11.828125 -19.078125 C 11.660156 -18.234375 11.539062 -17.390625 11.46875 -16.546875 C 11.40625 -15.710938 11.375 -14.957031 11.375 -14.28125 L 11.375 -5.84375 C 11.375 -5.050781 11.488281 -4.414062 11.71875 -3.9375 C 11.957031 -3.457031 12.273438 -3.09375 12.671875 -2.84375 C 13.078125 -2.601562 13.546875 -2.441406 14.078125 -2.359375 C 14.609375 -2.285156 15.171875 -2.25 15.765625 -2.25 L 17.265625 -2.25 Z M 17.265625 0 "/></g></g></g></svg>