<?xml version="1.0" encoding="UTF-8"?>
<svg version="1.1" xmlns="http://www.w3.org/2000/svg" width="1563" height="1563">
<path d="M0 0 C515.79 0 1031.58 0 1563 0 C1563 515.79 1563 1031.58 1563 1563 C1047.21 1563 531.42 1563 0 1563 C0 1047.21 0 531.42 0 0 Z " fill="#000000" transform="translate(0,0)"/>
<path d="M0 0 C13.53 0 27.06 0 41 0 C41.01458252 4.51252441 41.02916504 9.02504883 41.04418945 13.67431641 C41.09448715 28.57022742 41.1609231 43.46603398 41.23571491 58.3618412 C41.28067366 67.39469867 41.32008815 76.42751671 41.34643555 85.46044922 C41.36941498 93.33388265 41.4028124 101.20719129 41.44870156 109.08052576 C41.47263454 113.24911307 41.49136281 117.41757679 41.49761391 121.58623123 C41.50366445 125.51134439 41.523663 129.43614132 41.55427551 133.36113739 C41.56305626 134.80022104 41.56677823 136.23934601 41.56500816 137.67845535 C41.56335167 139.64697093 41.58184492 141.61547242 41.60127258 143.58389282 C41.60588155 144.68451365 41.61049051 145.78513447 41.61523914 146.91910744 C42.16205995 151.29766139 43.70111487 154.6757019 46.796875 157.83203125 C49.66371868 159.35186505 52.02110541 159.5120166 55.25 159.6875 C56.86648438 159.78611328 56.86648438 159.78611328 58.515625 159.88671875 C59.33546875 159.92410156 60.1553125 159.96148438 61 160 C61 163.3 61 166.6 61 170 C48.46 170 35.92 170 23 170 C22.01 163.73 21.02 157.46 20 151 C19.195625 152.32 18.39125 153.64 17.5625 155 C12.27638899 162.88563383 6.16749484 168.35851844 -3 171 C-3.60328125 171.18175781 -4.2065625 171.36351562 -4.828125 171.55078125 C-15.80655235 173.82149914 -29.20902899 172.29494788 -38.8125 166.375 C-47.52244457 159.85452773 -52.71224697 152.35119417 -56 142 C-56.25966553 141.22003662 -56.51933105 140.44007324 -56.78686523 139.63647461 C-59.41535567 130.7367446 -59.49130215 122.02802862 -59.44604492 112.82885742 C-59.43754743 110.20216036 -59.466367 107.57765491 -59.49804688 104.95117188 C-59.57009884 87.51172152 -56.47449534 71.08979226 -44.09765625 57.97265625 C-35.47733247 49.86602029 -25.58975266 47.52705628 -13.97265625 47.64648438 C-1.25086304 48.06813472 7.71928214 52.4429366 16.65234375 61.25390625 C18.13130641 63.17012744 18.59109409 64.63455692 19 67 C19.66 67 20.32 67 21 67 C20.89606934 65.56551514 20.89606934 65.56551514 20.79003906 64.10205078 C20.28987576 56.87495532 19.92808555 49.67448626 19.859375 42.4296875 C19.84007186 41.00520522 19.82054023 39.58072603 19.80078125 38.15625 C19.7715861 35.99481892 19.74999102 33.83449497 19.74951172 31.67285156 C19.7461744 29.52838594 19.71172142 27.38624576 19.671875 25.2421875 C19.6625293 23.9929248 19.65318359 22.74366211 19.64355469 21.45654297 C18.79585137 16.90351431 17.23161908 15.26521814 14 12 C11.29816945 10.64908472 8.88191794 10.66141942 5.875 10.4375 C4.23144531 10.31181641 4.23144531 10.31181641 2.5546875 10.18359375 C1.71164062 10.12300781 0.86859375 10.06242188 0 10 C0 6.7 0 3.4 0 0 Z " fill="#FCFCFC" transform="translate(737,691)"/>
<path d="M0 0 C9.25891886 -0.06999383 18.51774446 -0.12305894 27.77687168 -0.15543652 C32.07782504 -0.17098838 36.37859532 -0.19203101 40.67944336 -0.22631836 C44.84216508 -0.25929091 49.00471246 -0.27693143 53.16755486 -0.28463173 C54.74331335 -0.29010815 56.31906402 -0.30079855 57.89474678 -0.31719017 C70.86685224 -0.44657691 83.94511256 0.17942189 95.625 6.4375 C97.28402344 7.30181641 97.28402344 7.30181641 98.9765625 8.18359375 C108.22527214 13.73998908 114.25317508 21.99359312 117.33984375 32.3359375 C120.17801726 48.08864016 118.5901854 64.11466486 109.74609375 77.72265625 C100.50005048 89.78181336 85.79387625 96.04440183 71 98 C66.2872979 98.2223103 61.59151341 98.1906474 56.875 98.125 C55.63234375 98.11597656 54.3896875 98.10695313 53.109375 98.09765625 C50.07270996 98.07429729 47.03646147 98.04154283 44 98 C44.06900606 103.87199663 44.15703644 109.74328999 44.26245117 115.61474609 C44.29563713 117.61076029 44.32368868 119.60686689 44.34643555 121.60302734 C44.38009793 124.4779384 44.43241977 127.35200743 44.48828125 130.2265625 C44.49467117 131.11429352 44.5010611 132.00202454 44.50764465 132.91665649 C44.62760463 138.00990501 45.19359019 141.58062674 48 146 C52.49773494 150.20755849 57.28932108 150.1761597 63.25 150.5625 C64.51328125 150.64628906 65.7765625 150.73007812 67.078125 150.81640625 C68.04234375 150.87699219 69.0065625 150.93757812 70 151 C70 153.97 70 156.94 70 160 C47.23 160 24.46 160 1 160 C1 157.03 1 154.06 1 151 C1.96421875 150.82984375 2.9284375 150.6596875 3.921875 150.484375 C5.18515625 150.24203125 6.4484375 149.9996875 7.75 149.75 C9.00296875 149.51796875 10.2559375 149.2859375 11.546875 149.046875 C15.88503942 147.73168488 17.79198225 146.02208328 20.08819866 142.17848015 C21.15483874 139.63005853 21.25421206 137.7626103 21.26069641 135.00369263 C21.27132362 133.49390335 21.27132362 133.49390335 21.28216553 131.95361328 C21.27968811 130.85533203 21.27721069 129.75705078 21.2746582 128.62548828 C21.27976913 127.46411346 21.28488007 126.30273865 21.29014587 125.10617065 C21.30406424 121.26083241 21.30308329 117.41567296 21.30078125 113.5703125 C21.30368514 111.57477912 21.30659353 109.57924567 21.310188 107.58371341 C21.32128034 101.3085576 21.32172244 95.03346165 21.31567383 88.75830078 C21.30963635 82.29171591 21.32193976 75.82534874 21.3432439 69.35880101 C21.36087832 63.80112134 21.36685828 58.24351085 21.36360615 52.68580425 C21.36179572 49.36901017 21.3657231 46.05240567 21.37832069 42.73563004 C21.39065115 39.0346829 21.38391298 35.3342398 21.37231445 31.63330078 C21.37995819 30.53906799 21.38760193 29.44483521 21.39547729 28.31744385 C21.35737808 22.81972439 21.2069013 18.69733559 18 14 C12.72187396 10.07523961 6.34498657 10.29774209 0 10 C0 6.7 0 3.4 0 0 Z " fill="#FCFCFC" transform="translate(339,701)"/>
<path d="M0 0 C12.68473133 9.7969763 17.12720569 23.46465861 19.31640625 38.7890625 C19.31640625 44.7290625 19.31640625 50.6690625 19.31640625 56.7890625 C-5.43359375 56.7890625 -30.18359375 56.7890625 -55.68359375 56.7890625 C-52.97828964 80.86601674 -52.97828964 80.86601674 -38.87890625 98.4921875 C-31.05014794 103.11700558 -21.89109895 102.81655232 -13.19921875 101.1015625 C-4.40487562 98.62428274 3.19734576 94.70626132 9.31640625 87.7890625 C12.31640625 88.7890625 12.31640625 88.7890625 13.31640625 90.7890625 C13.75194145 95.9283779 13.68690291 99.63885085 10.76171875 104.12890625 C5.17839993 110.54217787 -2.80769766 113.27135801 -10.68359375 115.7890625 C-12.16859375 116.2840625 -12.16859375 116.2840625 -13.68359375 116.7890625 C-31.06015075 118.14909746 -45.53767814 116.68947532 -59.68359375 105.7890625 C-69.46042909 97.08391873 -74.84374342 83.54753731 -76.68359375 70.7890625 C-76.917845 66.07205009 -76.95392064 61.35600112 -76.97875977 56.6340332 C-76.99019412 55.1284031 -77.01050792 53.62281073 -77.0402832 52.11743164 C-77.38684691 34.53561587 -74.07512122 17.91503255 -61.66015625 4.5703125 C-55.60661397 -0.88505366 -48.48336206 -4.10166164 -40.68359375 -6.2109375 C-40.10351562 -6.39527344 -39.5234375 -6.57960938 -38.92578125 -6.76953125 C-25.84557941 -9.34455356 -11.17167969 -7.28042047 0 0 Z " fill="#FAFAFA" transform="translate(643.68359375,746.2109375)"/>
<path d="M0 0 C6.71882858 3.57015246 10.55436627 8.68839594 13.0625 15.80859375 C18.49515508 34.82288654 19.90207164 62.12059552 10.8671875 80.25 C6.88109209 86.4664107 1.84750009 90.6139535 -5.29296875 92.65234375 C-12.84480096 94.03058161 -20.51103928 94.38916134 -27.24609375 90.30859375 C-36.09386719 83.91032322 -39.26933632 74.79857376 -41.06201172 64.3659668 C-43.6317146 46.53841157 -44.82820004 22.16229778 -34.1328125 6.6875 C-25.41287228 -3.96280867 -12.1955343 -5.61072504 0 0 Z " fill="#010101" transform="translate(740.8828125,755.875)"/>
<path d="M0 0 C3.49041773 2.90868144 5.31720441 4.91893249 5.94140625 9.51953125 C6.20758488 15.24666509 5.6022646 18.79157597 1.625 23.1875 C-4.29496496 27.75080632 -8.01829175 28.32897516 -15.375 28.1875 C-15.40078125 27.60742188 -15.4265625 27.02734375 -15.453125 26.4296875 C-15.86000703 20.82581229 -16.78364443 17.54065826 -20.375 13.1875 C-23.86136489 11.44431755 -27.56330648 11.75537908 -31.375 12.1875 C-37.64648792 14.89284773 -40.72974521 20.12204254 -43.375 26.1875 C-47.22215934 38.19395415 -48.52141756 50.36298244 -48.578125 62.91796875 C-48.58667511 64.409049 -48.58667511 64.409049 -48.59539795 65.93025208 C-48.60478524 68.01688593 -48.61135674 70.10353418 -48.61523438 72.19018555 C-48.62500429 75.37639857 -48.65611262 78.56198297 -48.6875 81.74804688 C-48.69402536 83.78385037 -48.69927766 85.81965843 -48.703125 87.85546875 C-48.7154718 88.8024614 -48.7278186 89.74945404 -48.74053955 90.72514343 C-48.7228525 95.97894003 -48.31371438 99.63899188 -45.375 104.1875 C-39.71973348 109.27166817 -31.54727068 108.96883321 -24.375 109.1875 C-24.375 112.1575 -24.375 115.1275 -24.375 118.1875 C-45.825 118.1875 -67.275 118.1875 -89.375 118.1875 C-89.375 114.8875 -89.375 111.5875 -89.375 108.1875 C-88.47136719 108.05472656 -87.56773438 107.92195312 -86.63671875 107.78515625 C-84.86748047 107.52025391 -84.86748047 107.52025391 -83.0625 107.25 C-81.30486328 106.98896484 -81.30486328 106.98896484 -79.51171875 106.72265625 C-76.35858597 106.26656969 -76.35858597 106.26656969 -73.375 105.1875 C-71.24259076 100.53395803 -71.07309296 96.01518976 -71.06860352 90.98242188 C-71.06028 90.18163712 -71.05195648 89.38085236 -71.04338074 88.55580139 C-71.01938793 85.92256744 -71.01052343 83.28958148 -71.00390625 80.65625 C-70.99493435 78.81831796 -70.9858124 76.98038664 -70.97654724 75.14245605 C-70.9600857 71.29596179 -70.95236185 67.4495543 -70.94946289 63.60302734 C-70.94407074 58.67999673 -70.90634443 53.75778335 -70.86071873 48.83498383 C-70.83095079 45.04137196 -70.82373945 41.2479574 -70.82273674 37.45423889 C-70.81853676 35.63937116 -70.80611133 33.82450271 -70.78521919 32.00975037 C-70.75829902 29.47008252 -70.76313019 26.93231678 -70.77563477 24.39257812 C-70.76080048 23.64746475 -70.74596619 22.90235138 -70.73068237 22.13465881 C-70.78470026 18.27320187 -71.34622813 15.73714137 -73.70420837 12.73864746 C-76.92630078 9.66089599 -78.80309041 9.25536966 -83.1875 8.8125 C-84.34894531 8.68101562 -85.51039062 8.54953125 -86.70703125 8.4140625 C-87.58746094 8.33929687 -88.46789063 8.26453125 -89.375 8.1875 C-89.375 4.8875 -89.375 1.5875 -89.375 -1.8125 C-77.825 -1.8125 -66.275 -1.8125 -54.375 -1.8125 C-52.725 5.1175 -51.075 12.0475 -49.375 19.1875 C-48.385 17.186875 -47.395 15.18625 -46.375 13.125 C-42.60337518 5.91248458 -37.50312449 -0.44452605 -29.61328125 -3.3828125 C-19.88426977 -5.25051104 -8.80161135 -4.72679128 0 0 Z " fill="#F9F9F9" transform="translate(1125.375,742.8125)"/>
<path d="M0 0 C3.49041773 2.90868144 5.31720441 4.91893249 5.94140625 9.51953125 C6.20758488 15.24666509 5.6022646 18.79157597 1.625 23.1875 C-4.29496496 27.75080632 -8.01829175 28.32897516 -15.375 28.1875 C-15.40078125 27.60742188 -15.4265625 27.02734375 -15.453125 26.4296875 C-15.86000703 20.82581229 -16.78364443 17.54065826 -20.375 13.1875 C-23.86136489 11.44431755 -27.56330648 11.75537908 -31.375 12.1875 C-37.64648792 14.89284773 -40.72974521 20.12204254 -43.375 26.1875 C-47.22215934 38.19395415 -48.52141756 50.36298244 -48.578125 62.91796875 C-48.58667511 64.409049 -48.58667511 64.409049 -48.59539795 65.93025208 C-48.60478524 68.01688593 -48.61135674 70.10353418 -48.61523438 72.19018555 C-48.62500429 75.37639857 -48.65611262 78.56198297 -48.6875 81.74804688 C-48.69402536 83.78385037 -48.69927766 85.81965843 -48.703125 87.85546875 C-48.7154718 88.8024614 -48.7278186 89.74945404 -48.74053955 90.72514343 C-48.7228525 95.97894003 -48.31371438 99.63899188 -45.375 104.1875 C-39.71973348 109.27166817 -31.54727068 108.96883321 -24.375 109.1875 C-24.375 112.1575 -24.375 115.1275 -24.375 118.1875 C-45.825 118.1875 -67.275 118.1875 -89.375 118.1875 C-89.375 114.8875 -89.375 111.5875 -89.375 108.1875 C-88.47136719 108.05472656 -87.56773437 107.92195312 -86.63671875 107.78515625 C-84.86748047 107.52025391 -84.86748047 107.52025391 -83.0625 107.25 C-81.30486328 106.98896484 -81.30486328 106.98896484 -79.51171875 106.72265625 C-76.35858597 106.26656969 -76.35858597 106.26656969 -73.375 105.1875 C-71.24259076 100.53395803 -71.07309296 96.01518976 -71.06860352 90.98242188 C-71.06028 90.18163712 -71.05195648 89.38085236 -71.04338074 88.55580139 C-71.01938793 85.92256744 -71.01052343 83.28958148 -71.00390625 80.65625 C-70.99493435 78.81831796 -70.9858124 76.98038664 -70.97654724 75.14245605 C-70.9600857 71.29596179 -70.95236185 67.4495543 -70.94946289 63.60302734 C-70.94407074 58.67999673 -70.90634443 53.75778335 -70.86071873 48.83498383 C-70.83095079 45.04137196 -70.82373945 41.2479574 -70.82273674 37.45423889 C-70.81853676 35.63937116 -70.80611133 33.82450271 -70.78521919 32.00975037 C-70.75829902 29.47008252 -70.76313019 26.93231678 -70.77563477 24.39257812 C-70.76080048 23.64746475 -70.74596619 22.90235138 -70.73068237 22.13465881 C-70.78470026 18.27320187 -71.34622813 15.73714137 -73.70420837 12.73864746 C-76.92630078 9.66089599 -78.80309041 9.25536966 -83.1875 8.8125 C-84.34894531 8.68101562 -85.51039063 8.54953125 -86.70703125 8.4140625 C-87.58746094 8.33929687 -88.46789062 8.26453125 -89.375 8.1875 C-89.375 4.8875 -89.375 1.5875 -89.375 -1.8125 C-77.825 -1.8125 -66.275 -1.8125 -54.375 -1.8125 C-52.725 5.1175 -51.075 12.0475 -49.375 19.1875 C-48.385 17.186875 -47.395 15.18625 -46.375 13.125 C-42.60337518 5.91248458 -37.50312449 -0.44452605 -29.61328125 -3.3828125 C-19.88426977 -5.25051104 -8.80161135 -4.72679128 0 0 Z " fill="#F9F9F9" transform="translate(553.375,742.8125)"/>
<path d="M0 0 C3.7990162 3.99715083 5.28739586 7.68432368 5.5 13.1875 C5.23805294 17.26015309 4.98103992 20.01896008 2 23 C-3.7410649 26.11745997 -8.4465431 27.21791051 -15 27 C-15.08636719 26.0821875 -15.17273438 25.164375 -15.26171875 24.21875 C-16.4537578 13.71411621 -16.4537578 13.71411621 -22 5 C-27.2426435 0.90818068 -33.64398204 1.27289769 -40 2 C-47.15852549 3.90249101 -51.33384476 7.41844803 -55.08203125 13.859375 C-63.60242303 30.8363354 -64.32938787 56.80668597 -59.25 74.875 C-58.55638688 76.93650518 -57.81508723 78.98343471 -57 81 C-56.69964844 81.80824219 -56.39929688 82.61648438 -56.08984375 83.44921875 C-53.17719258 90.27062257 -47.87044706 94.60149647 -41.06323242 97.38696289 C-32.01742694 100.07469423 -19.61092036 99.44718982 -11.125 95.5 C-6.12074828 92.5031845 -2.39780886 88.71386159 1 84 C3.40566625 85.72907261 4.82155168 87.09574745 5.40625 90.05859375 C5.66498485 96.45150074 3.88168635 99.79723439 -0.40234375 104.55859375 C-9.0442708 113.03148556 -21.9045715 114.23268373 -33.41674805 114.17626953 C-46.89995868 113.98942193 -59.12919407 110.61596507 -69.19140625 101.09765625 C-83.84368938 84.10353953 -85.17475115 61.35260818 -84 40 C-82.58833507 24.69767602 -77.37693138 9.27287333 -65.578125 -1.13671875 C-47.80653336 -14.29983865 -17.26040771 -14.09545582 0 0 Z " fill="#FAFAFA" transform="translate(953,749)"/>
<path d="M0 0 C0.65038239 0.02097244 1.30076477 0.04194489 1.97085571 0.06355286 C4.11559899 0.13723568 6.25857951 0.23414166 8.40234375 0.33203125 C9.90401499 0.3896639 11.40572527 0.44628736 12.9074707 0.50195312 C17.71966442 0.6880942 22.52969056 0.91207252 27.33984375 1.14453125 C28.16488403 1.18402893 28.98992432 1.22352661 29.83996582 1.26422119 C35.570025 1.54067264 41.29898075 1.83495981 47.02734375 2.14453125 C48.18437302 2.20681412 48.18437302 2.20681412 49.36477661 2.27035522 C51.56895898 2.39100676 53.77278691 2.5166837 55.9765625 2.64453125 C57.23170654 2.71671875 58.48685059 2.78890625 59.7800293 2.86328125 C63.33150717 3.1438726 66.81972809 3.60171364 70.33984375 4.14453125 C70.55099187 17.81917689 69.99813866 31.3733252 69.11303711 45.01855469 C68.90038458 48.29976111 68.69657666 51.58143008 68.49414062 54.86328125 C68.36118323 56.9805006 68.22773755 59.09768935 68.09375 61.21484375 C68.03328995 62.18060333 67.9728299 63.14636292 67.91053772 64.14138794 C67.62733251 68.48015928 67.3123657 72.81529145 66.90209961 77.14404297 C66.8035392 78.19795731 66.8035392 78.19795731 66.70298767 79.27316284 C66.0996495 82.38231026 64.63082771 84.04446262 62.33984375 86.14453125 C58.05898919 88.71304399 53.19652313 88.84690816 48.33984375 88.14453125 C44.38194912 86.09228959 41.62215195 83.97184354 39.33984375 80.14453125 C38.99414062 77.13842773 38.99414062 77.13842773 39.05859375 73.578125 C39.06934937 72.92806992 39.08010498 72.27801483 39.09118652 71.60826111 C39.29360346 63.11830741 40.07894074 54.66122547 40.83984375 46.20703125 C40.9849643 44.54106685 41.12949872 42.87505129 41.2734375 41.20898438 C41.6221797 37.18688053 41.97874968 33.1655442 42.33984375 29.14453125 C41.32784912 29.14976807 40.31585449 29.15500488 39.27319336 29.16040039 C35.44312458 29.17878757 31.61305951 29.19008367 27.78295898 29.19946289 C26.13939758 29.20442737 24.49584043 29.21120116 22.85229492 29.2199707 C17.34695388 29.24856551 11.84468818 29.22334722 6.33984375 29.14453125 C5.60936829 29.13766296 4.87889282 29.13079468 4.12628174 29.12371826 C2.07187415 29.09449924 0.02185867 29.03010797 -2.03125 28.953125 C-3.19454834 28.91888428 -4.35784668 28.88464355 -5.55639648 28.84936523 C-9.54785743 27.94294285 -11.06997593 26.24405439 -13.66015625 23.14453125 C-15.98402487 19.05009607 -16.36972097 14.76108197 -15.66015625 10.14453125 C-12.79970574 2.36719824 -8.05051032 -0.30901621 0 0 Z " fill="#828282" transform="translate(1131.66015625,687.85546875)"/>
<path d="M0 0 C3.3 0 6.6 0 10 0 C10 8.91 10 17.82 10 27 C19.9 27 29.8 27 40 27 C40 31.29 40 35.58 40 40 C30.1 40 20.2 40 10 40 C10.04045181 50.37135519 10.09771584 60.74225383 10.18390274 71.11333179 C10.2232727 75.92997842 10.25551232 80.74644509 10.27099609 85.56323242 C10.28623207 90.21892972 10.32079947 94.87413194 10.36830902 99.52960777 C10.38305163 101.29839441 10.39103689 103.06725175 10.39188385 104.83609962 C10.11482492 120.95535299 10.11482492 120.95535299 17.5703125 134.671875 C22.41027364 136.54611963 26.73755711 136.43099392 31.875 136.25 C32.84953125 136.23195313 33.8240625 136.21390625 34.828125 136.1953125 C37.21917673 136.14842913 39.60971873 136.07669352 42 136 C42 139.3 42 142.6 42 146 C30.89142629 150.44342948 15.33079107 151.3581585 3.97265625 147.03125 C-3.14928651 143.30809577 -6.50915335 138.54172764 -9 131 C-11.60501984 121.27333309 -11.25738154 111.40255502 -11.1953125 101.42578125 C-11.19157513 99.64788473 -11.18873159 97.86998612 -11.18673706 96.09208679 C-11.17915756 91.4479081 -11.15955892 86.80385759 -11.1373291 82.159729 C-11.1167472 77.40663384 -11.10770913 72.65351765 -11.09765625 67.90039062 C-11.0763068 58.60019548 -11.04117203 49.30012853 -11 40 C-16.61 40 -22.22 40 -28 40 C-28 37.03 -28 34.06 -28 31 C-27.13117187 30.76925781 -26.26234375 30.53851562 -25.3671875 30.30078125 C-14.88426994 27.47092226 -14.88426994 27.47092226 -7.64453125 19.84375 C-4.75364381 14.48585892 -3.00251913 9.05695429 -1.578125 3.15234375 C-1 1 -1 1 0 0 Z " fill="#FAFAFA" transform="translate(991,714)"/>
<path d="M0 0 C1.1446875 0.00112793 2.289375 0.00225586 3.46875 0.00341797 C4.71011719 0.01646973 5.95148438 0.02952148 7.23046875 0.04296875 C8.51695313 0.05086426 9.8034375 0.05875977 11.12890625 0.06689453 C20.39384451 0.13733743 29.6568636 0.3332777 38.91796875 0.60546875 C40.62883667 0.65151245 40.62883667 0.65151245 42.37426758 0.69848633 C53.09942731 1.06507412 63.74601124 2.13867846 74.41796875 3.23046875 C74.01047483 13.03735937 73.57757104 22.84276911 73.1124239 32.64710426 C72.89721613 37.20000678 72.69069633 41.75295482 72.50415039 46.30712891 C72.32371166 50.70433456 72.12029691 55.09993558 71.90108299 59.49537277 C71.82156796 61.17027501 71.75026138 62.84558826 71.68740273 64.52119827 C71.59774323 66.87333951 71.47865711 69.2223102 71.3527832 71.57275391 C71.33335663 72.26183838 71.31393005 72.95092285 71.29391479 73.66088867 C70.95208868 79.12373628 69.14095127 81.48236429 65.41796875 85.23046875 C61.00782152 87.43554236 55.2179619 86.66736133 50.41796875 86.23046875 C47.17171956 84.98960176 45.00854607 83.4116234 43.41796875 80.23046875 C42.46131349 62.80830475 44.52284344 45.52012707 46.41796875 28.23046875 C45.76127197 28.23570557 45.1045752 28.24094238 44.42797852 28.24633789 C31.8198138 28.3326129 19.21004207 28.31657822 6.60546875 27.98046875 C5.5575415 27.96636963 4.50961426 27.95227051 3.42993164 27.93774414 C-0.96197527 27.79292425 -3.81524982 27.67865103 -7.65625 25.43359375 C-11.18345581 21.39841307 -11.87422405 18.66083972 -11.89453125 13.29296875 C-11.91128906 12.27332031 -11.92804688 11.25367188 -11.9453125 10.203125 C-11.52912213 6.79752421 -10.61695959 4.97071183 -8.58203125 2.23046875 C-5.17361615 -0.04180798 -3.99799885 -0.01629228 0 0 Z " fill="#838383" transform="translate(1172.58203125,647.76953125)"/>
<path d="M0 0 C31.96031442 0 31.96031442 0 41.50390625 7.4609375 C49.481825 15.66798708 50.34795209 26.54084003 50.3125 37.375 C50.32861328 38.35210938 50.34472656 39.32921875 50.36132812 40.3359375 C50.36778825 50.05196269 48.35837989 59.38302049 42 67 C29.55817648 78.35663404 17.14836508 76 0 76 C0 50.92 0 25.84 0 0 Z " fill="#020202" transform="translate(383,712)"/>
<path d="M0 0 C13.2 0 26.4 0 40 0 C40.0093457 2.95710937 40.01869141 5.91421875 40.02832031 8.9609375 C40.06212528 18.74391583 40.11769401 28.52668401 40.18390274 38.30949402 C40.22336962 44.23938078 40.25556216 50.16911921 40.27099609 56.09912109 C40.28616758 61.82459837 40.32062266 67.54966783 40.36830902 73.27496338 C40.3831176 75.45652721 40.39104071 77.63814926 40.39188385 79.81976318 C40.39425675 82.8815837 40.42136364 85.94228019 40.45410156 89.00390625 C40.4490712 89.90086716 40.44404083 90.79782806 40.43885803 91.7219696 C40.53276833 97.41888857 41.40584363 102.40394139 45 107 C48.52895192 109.17401364 51.63427777 109.37805667 55.75 109.625 C56.92046875 109.69976563 58.0909375 109.77453125 59.296875 109.8515625 C60.63492188 109.92503906 60.63492188 109.92503906 62 110 C62 113.3 62 116.6 62 120 C40.88 120 19.76 120 -2 120 C-2 116.7 -2 113.4 -2 110 C-0.80503906 109.94392578 -0.80503906 109.94392578 0.4140625 109.88671875 C8.65892872 109.48088711 8.65892872 109.48088711 16 106 C18.60213913 102.31068574 18.30261109 98.26789747 18.30639648 93.93017578 C18.31472 93.1199295 18.32304352 92.30968323 18.33161926 91.47488403 C18.35570032 88.7983112 18.36448884 86.12198214 18.37109375 83.4453125 C18.38006124 81.58210172 18.3891831 79.71889168 18.39845276 77.85568237 C18.41493995 73.95015717 18.42264243 70.04471767 18.42553711 66.13916016 C18.43092189 61.13984807 18.4686069 56.1413436 18.51428127 51.1422596 C18.54405379 47.2937426 18.5512607 43.44542009 18.55226326 39.59679794 C18.55646486 37.75401992 18.56889679 35.91124128 18.58978081 34.06857681 C18.61670102 31.48798815 18.61186883 28.90927164 18.59936523 26.32861328 C18.61419952 25.57100708 18.62903381 24.81340088 18.64431763 24.03283691 C18.59076705 20.14278389 18.04850705 17.56731801 15.67079163 14.54342651 C12.44840651 11.47471099 10.56647938 11.06732115 6.1875 10.625 C5.02605469 10.49351562 3.86460937 10.36203125 2.66796875 10.2265625 C1.78753906 10.15179687 0.90710938 10.07703125 0 10 C0 6.7 0 3.4 0 0 Z " fill="#F9F9F9" transform="translate(801,741)"/>
<path d="M0 0 C7.37919588 4.26162863 11.73093894 11.03873843 14.0546875 19.08984375 C15.8378339 26.15589405 15.578125 31.3798713 15.578125 39.1640625 C-1.581875 39.1640625 -18.741875 39.1640625 -36.421875 39.1640625 C-35.34128441 26.19697546 -33.92356865 12.68896582 -23.5859375 3.5390625 C-16.79044943 -1.5073759 -8.10577388 -2.79779937 0 0 Z " fill="#060606" transform="translate(624.421875,751.8359375)"/>
<path d="M0 0 C3.18375844 1.63736148 5.21427638 3.96427342 7.375 6.8125 C9.2041583 13.21455406 8.11173467 18.33219757 5 24 C1.81414976 26.9867346 -0.95344161 27.90126808 -5.3125 28.3125 C-10.59592627 27.86475201 -13.41484093 25.79651361 -16.875 21.875 C-18.56358494 17.55972739 -18.66646131 13.57002039 -18 9 C-13.89686094 0.94026257 -8.77437757 -1.49468892 0 0 Z " fill="#F6F6F6" transform="translate(835,691)"/>
</svg>
