<?xml version="1.0" encoding="UTF-8"?>
<svg version="1.1" xmlns="http://www.w3.org/2000/svg" width="1563" height="1563">
<path d="M0 0 C515.79 0 1031.58 0 1563 0 C1563 515.79 1563 1031.58 1563 1563 C1047.21 1563 531.42 1563 0 1563 C0 1047.21 0 531.42 0 0 Z " fill="#FEFEFE" transform="translate(0,0)"/>
<path d="M0 0 C13.53 0 27.06 0 41 0 C41.01458252 4.51252441 41.02916504 9.02504883 41.04418945 13.67431641 C41.09448715 28.57022742 41.1609231 43.46603398 41.23571491 58.3618412 C41.28067366 67.39469867 41.32008815 76.42751671 41.34643555 85.46044922 C41.36941498 93.33388265 41.4028124 101.20719129 41.44870156 109.08052576 C41.47263454 113.24911307 41.49136281 117.41757679 41.49761391 121.58623123 C41.50366445 125.51134439 41.523663 129.43614132 41.55427551 133.36113739 C41.56305626 134.80022104 41.56677823 136.23934601 41.56500816 137.67845535 C41.56335167 139.64697093 41.58184492 141.61547242 41.60127258 143.58389282 C41.60588155 144.68451365 41.61049051 145.78513447 41.61523914 146.91910744 C42.16205995 151.29766139 43.70111487 154.6757019 46.796875 157.83203125 C49.66371868 159.35186505 52.02110541 159.5120166 55.25 159.6875 C56.86648438 159.78611328 56.86648438 159.78611328 58.515625 159.88671875 C59.33546875 159.92410156 60.1553125 159.96148438 61 160 C61 163.3 61 166.6 61 170 C48.46 170 35.92 170 23 170 C22.01 163.73 21.02 157.46 20 151 C19.195625 152.32 18.39125 153.64 17.5625 155 C12.27638899 162.88563383 6.16749484 168.35851844 -3 171 C-3.60328125 171.18175781 -4.2065625 171.36351562 -4.828125 171.55078125 C-15.80655235 173.82149914 -29.20902899 172.29494788 -38.8125 166.375 C-51.82516932 156.63340535 -56.80662193 143.22415321 -59.40234375 127.57421875 C-61.84809796 106.56753532 -61.69993581 80.90118503 -48.75 63.125 C-40.95644226 53.99061512 -32.15922727 48.71231349 -20.0625 47.65625 C-7.52344225 47.19388436 3.36970639 49.40683368 13.01171875 57.73828125 C18.25804371 62.70792376 18.25804371 62.70792376 19 67 C19.66 67 20.32 67 21 67 C20.89606934 65.56551514 20.89606934 65.56551514 20.79003906 64.10205078 C20.28987576 56.87495532 19.92808555 49.67448626 19.859375 42.4296875 C19.84007186 41.00520522 19.82054023 39.58072603 19.80078125 38.15625 C19.7715861 35.99481892 19.74999102 33.83449497 19.74951172 31.67285156 C19.7461744 29.52838594 19.71172142 27.38624576 19.671875 25.2421875 C19.6625293 23.9929248 19.65318359 22.74366211 19.64355469 21.45654297 C18.79585137 16.90351431 17.23161908 15.26521814 14 12 C11.29816945 10.64908472 8.88191794 10.66141942 5.875 10.4375 C4.23144531 10.31181641 4.23144531 10.31181641 2.5546875 10.18359375 C1.71164062 10.12300781 0.86859375 10.06242188 0 10 C0 6.7 0 3.4 0 0 Z " fill="#020202" transform="translate(737,691)"/>
<path d="M0 0 C9.25891886 -0.06999383 18.51774446 -0.12305894 27.77687168 -0.15543652 C32.07782504 -0.17098838 36.37859532 -0.19203101 40.67944336 -0.22631836 C44.84216508 -0.25929091 49.00471246 -0.27693143 53.16755486 -0.28463173 C54.74331335 -0.29010815 56.31906402 -0.30079855 57.89474678 -0.31719017 C70.86685224 -0.44657691 83.94511256 0.17942189 95.625 6.4375 C97.28402344 7.30181641 97.28402344 7.30181641 98.9765625 8.18359375 C108.26935072 13.76647039 114.23297015 22.02023232 117.34375 32.3984375 C120.10360554 47.54478753 118.86083681 64.07189384 110 77 C101.37305731 89.05965286 88.13272224 94.85228326 73.9230957 97.60522461 C68.25935039 98.37013534 62.57866202 98.20438716 56.875 98.125 C55.63234375 98.11597656 54.3896875 98.10695313 53.109375 98.09765625 C50.07270996 98.07429729 47.03646147 98.04154283 44 98 C44.06900606 103.87199663 44.15703644 109.74328999 44.26245117 115.61474609 C44.29563713 117.61076029 44.32368868 119.60686689 44.34643555 121.60302734 C44.38009793 124.4779384 44.43241977 127.35200743 44.48828125 130.2265625 C44.49467117 131.11429352 44.5010611 132.00202454 44.50764465 132.91665649 C44.62760463 138.00990501 45.19359019 141.58062674 48 146 C52.49773494 150.20755849 57.28932108 150.1761597 63.25 150.5625 C64.51328125 150.64628906 65.7765625 150.73007812 67.078125 150.81640625 C68.04234375 150.87699219 69.0065625 150.93757812 70 151 C70 153.97 70 156.94 70 160 C47.23 160 24.46 160 1 160 C1 157.03 1 154.06 1 151 C1.96421875 150.82984375 2.9284375 150.6596875 3.921875 150.484375 C5.18515625 150.24203125 6.4484375 149.9996875 7.75 149.75 C9.00296875 149.51796875 10.2559375 149.2859375 11.546875 149.046875 C15.88503942 147.73168488 17.79198225 146.02208328 20.08819866 142.17848015 C21.15483874 139.63005853 21.25421206 137.7626103 21.26069641 135.00369263 C21.27132362 133.49390335 21.27132362 133.49390335 21.28216553 131.95361328 C21.27968811 130.85533203 21.27721069 129.75705078 21.2746582 128.62548828 C21.27976913 127.46411346 21.28488007 126.30273865 21.29014587 125.10617065 C21.30406424 121.26083241 21.30308329 117.41567296 21.30078125 113.5703125 C21.30368514 111.57477912 21.30659353 109.57924567 21.310188 107.58371341 C21.32128034 101.3085576 21.32172244 95.03346165 21.31567383 88.75830078 C21.30963635 82.29171591 21.32193976 75.82534874 21.3432439 69.35880101 C21.36087832 63.80112134 21.36685828 58.24351085 21.36360615 52.68580425 C21.36179572 49.36901017 21.3657231 46.05240567 21.37832069 42.73563004 C21.39065115 39.0346829 21.38391298 35.3342398 21.37231445 31.63330078 C21.37995819 30.53906799 21.38760193 29.44483521 21.39547729 28.31744385 C21.35737808 22.81972439 21.2069013 18.69733559 18 14 C12.72187396 10.07523961 6.34498657 10.29774209 0 10 C0 6.7 0 3.4 0 0 Z " fill="#020202" transform="translate(339,701)"/>
<path d="M0 0 C12.68473133 9.7969763 17.12720569 23.46465861 19.31640625 38.7890625 C19.31640625 44.7290625 19.31640625 50.6690625 19.31640625 56.7890625 C-5.43359375 56.7890625 -30.18359375 56.7890625 -55.68359375 56.7890625 C-52.97828964 80.86601674 -52.97828964 80.86601674 -38.87890625 98.4921875 C-31.05014794 103.11700558 -21.89109895 102.81655232 -13.19921875 101.1015625 C-4.40487562 98.62428274 3.19734576 94.70626132 9.31640625 87.7890625 C12.31640625 88.7890625 12.31640625 88.7890625 13.31640625 90.7890625 C13.75194145 95.9283779 13.68690291 99.63885085 10.76171875 104.12890625 C5.17839993 110.54217787 -2.80769766 113.27135801 -10.68359375 115.7890625 C-12.16859375 116.2840625 -12.16859375 116.2840625 -13.68359375 116.7890625 C-31.06015075 118.14909746 -45.53767814 116.68947532 -59.68359375 105.7890625 C-69.46042909 97.08391873 -74.84374342 83.54753731 -76.68359375 70.7890625 C-76.917845 66.07205009 -76.95392064 61.35600112 -76.97875977 56.6340332 C-76.99019412 55.1284031 -77.01050792 53.62281073 -77.0402832 52.11743164 C-77.38684691 34.53561587 -74.07512122 17.91503255 -61.66015625 4.5703125 C-55.60661397 -0.88505366 -48.48336206 -4.10166164 -40.68359375 -6.2109375 C-40.10351562 -6.39527344 -39.5234375 -6.57960938 -38.92578125 -6.76953125 C-25.84557941 -9.34455356 -11.17167969 -7.28042047 0 0 Z " fill="#040404" transform="translate(643.68359375,746.2109375)"/>
<path d="M0 0 C7.40960367 4.61042006 10.31299004 11.95247319 12.421875 20.09375 C16.01450634 38.15400483 17.80322329 64.9641373 7.44140625 81.171875 C3.10469843 86.67208979 -2.03925174 90.64807297 -9 92 C-19.07256645 92.95424314 -25.78785022 92.12123471 -33.6875 85.875 C-46.39573625 70.07557114 -45.31145535 46.8749857 -43.68359375 27.70703125 C-42.37336145 16.88285991 -39.48719765 7.3084202 -31 0 C-21.35783795 -6.56408724 -9.90908801 -5.26534566 0 0 Z " fill="#FCFCFC" transform="translate(743,757)"/>
<path d="M0 0 C3.49041773 2.90868144 5.31720441 4.91893249 5.94140625 9.51953125 C6.20758488 15.24666509 5.6022646 18.79157597 1.625 23.1875 C-4.29496496 27.75080632 -8.01829175 28.32897516 -15.375 28.1875 C-15.40078125 27.60742188 -15.4265625 27.02734375 -15.453125 26.4296875 C-15.86000703 20.82581229 -16.78364443 17.54065826 -20.375 13.1875 C-24.12262901 11.3136855 -28.29336433 11.67099672 -32.375 12.1875 C-38.98291956 15.74561053 -41.72776445 22.38927379 -44.375 29.1875 C-47.50793929 40.31064881 -48.52616002 51.41295976 -48.578125 62.91796875 C-48.58667511 64.409049 -48.58667511 64.409049 -48.59539795 65.93025208 C-48.60478524 68.01688593 -48.61135674 70.10353418 -48.61523438 72.19018555 C-48.62500429 75.37639857 -48.65611262 78.56198297 -48.6875 81.74804688 C-48.69402536 83.78385037 -48.69927766 85.81965843 -48.703125 87.85546875 C-48.7154718 88.8024614 -48.7278186 89.74945404 -48.74053955 90.72514343 C-48.7228525 95.97894003 -48.31371438 99.63899188 -45.375 104.1875 C-39.71973348 109.27166817 -31.54727068 108.96883321 -24.375 109.1875 C-24.375 112.1575 -24.375 115.1275 -24.375 118.1875 C-45.825 118.1875 -67.275 118.1875 -89.375 118.1875 C-89.375 114.8875 -89.375 111.5875 -89.375 108.1875 C-88.47136719 108.05472656 -87.56773438 107.92195312 -86.63671875 107.78515625 C-84.86748047 107.52025391 -84.86748047 107.52025391 -83.0625 107.25 C-81.30486328 106.98896484 -81.30486328 106.98896484 -79.51171875 106.72265625 C-76.35858597 106.26656969 -76.35858597 106.26656969 -73.375 105.1875 C-71.24259076 100.53395803 -71.07309296 96.01518976 -71.06860352 90.98242188 C-71.06028 90.18163712 -71.05195648 89.38085236 -71.04338074 88.55580139 C-71.01938793 85.92256744 -71.01052343 83.28958148 -71.00390625 80.65625 C-70.99493435 78.81831796 -70.9858124 76.98038664 -70.97654724 75.14245605 C-70.9600857 71.29596179 -70.95236185 67.4495543 -70.94946289 63.60302734 C-70.94407074 58.67999673 -70.90634443 53.75778335 -70.86071873 48.83498383 C-70.83095079 45.04137196 -70.82373945 41.2479574 -70.82273674 37.45423889 C-70.81853676 35.63937116 -70.80611133 33.82450271 -70.78521919 32.00975037 C-70.75829902 29.47008252 -70.76313019 26.93231678 -70.77563477 24.39257812 C-70.76080048 23.64746475 -70.74596619 22.90235138 -70.73068237 22.13465881 C-70.81102236 16.39157224 -72.43884928 14.06606278 -76.375 10.1875 C-78.94393838 8.90303081 -81.14076337 8.85772856 -84 8.625 C-85.00289062 8.54121094 -86.00578125 8.45742188 -87.0390625 8.37109375 C-88.19535156 8.28021484 -88.19535156 8.28021484 -89.375 8.1875 C-89.375 4.8875 -89.375 1.5875 -89.375 -1.8125 C-77.825 -1.8125 -66.275 -1.8125 -54.375 -1.8125 C-52.725 5.1175 -51.075 12.0475 -49.375 19.1875 C-48.385 17.186875 -47.395 15.18625 -46.375 13.125 C-42.60337518 5.91248458 -37.50312449 -0.44452605 -29.61328125 -3.3828125 C-19.88426977 -5.25051104 -8.80161135 -4.72679128 0 0 Z " fill="#040404" transform="translate(1125.375,742.8125)"/>
<path d="M0 0 C3.49041773 2.90868144 5.31720441 4.91893249 5.94140625 9.51953125 C6.20758488 15.24666509 5.6022646 18.79157597 1.625 23.1875 C-4.29496496 27.75080632 -8.01829175 28.32897516 -15.375 28.1875 C-15.40078125 27.60742188 -15.4265625 27.02734375 -15.453125 26.4296875 C-15.86000703 20.82581229 -16.78364443 17.54065826 -20.375 13.1875 C-24.12262901 11.3136855 -28.29336433 11.67099672 -32.375 12.1875 C-38.98291956 15.74561053 -41.72776445 22.38927379 -44.375 29.1875 C-47.50793929 40.31064881 -48.52616002 51.41295976 -48.578125 62.91796875 C-48.58667511 64.409049 -48.58667511 64.409049 -48.59539795 65.93025208 C-48.60478524 68.01688593 -48.61135674 70.10353418 -48.61523438 72.19018555 C-48.62500429 75.37639857 -48.65611262 78.56198297 -48.6875 81.74804688 C-48.69402536 83.78385037 -48.69927766 85.81965843 -48.703125 87.85546875 C-48.7154718 88.8024614 -48.7278186 89.74945404 -48.74053955 90.72514343 C-48.7228525 95.97894003 -48.31371438 99.63899188 -45.375 104.1875 C-39.71973348 109.27166817 -31.54727068 108.96883321 -24.375 109.1875 C-24.375 112.1575 -24.375 115.1275 -24.375 118.1875 C-45.825 118.1875 -67.275 118.1875 -89.375 118.1875 C-89.375 114.8875 -89.375 111.5875 -89.375 108.1875 C-88.47136719 108.05472656 -87.56773437 107.92195312 -86.63671875 107.78515625 C-84.86748047 107.52025391 -84.86748047 107.52025391 -83.0625 107.25 C-81.30486328 106.98896484 -81.30486328 106.98896484 -79.51171875 106.72265625 C-76.35858597 106.26656969 -76.35858597 106.26656969 -73.375 105.1875 C-71.24259076 100.53395803 -71.07309296 96.01518976 -71.06860352 90.98242188 C-71.06028 90.18163712 -71.05195648 89.38085236 -71.04338074 88.55580139 C-71.01938793 85.92256744 -71.01052343 83.28958148 -71.00390625 80.65625 C-70.99493435 78.81831796 -70.9858124 76.98038664 -70.97654724 75.14245605 C-70.9600857 71.29596179 -70.95236185 67.4495543 -70.94946289 63.60302734 C-70.94407074 58.67999673 -70.90634443 53.75778335 -70.86071873 48.83498383 C-70.83095079 45.04137196 -70.82373945 41.2479574 -70.82273674 37.45423889 C-70.81853676 35.63937116 -70.80611133 33.82450271 -70.78521919 32.00975037 C-70.75829902 29.47008252 -70.76313019 26.93231678 -70.77563477 24.39257812 C-70.76080048 23.64746475 -70.74596619 22.90235138 -70.73068237 22.13465881 C-70.81102236 16.39157224 -72.43884928 14.06606278 -76.375 10.1875 C-78.94393838 8.90303081 -81.14076337 8.85772856 -84 8.625 C-85.00289063 8.54121094 -86.00578125 8.45742188 -87.0390625 8.37109375 C-88.19535156 8.28021484 -88.19535156 8.28021484 -89.375 8.1875 C-89.375 4.8875 -89.375 1.5875 -89.375 -1.8125 C-77.825 -1.8125 -66.275 -1.8125 -54.375 -1.8125 C-52.725 5.1175 -51.075 12.0475 -49.375 19.1875 C-48.385 17.186875 -47.395 15.18625 -46.375 13.125 C-42.60337518 5.91248458 -37.50312449 -0.44452605 -29.61328125 -3.3828125 C-19.88426977 -5.25051104 -8.80161135 -4.72679128 0 0 Z " fill="#040404" transform="translate(553.375,742.8125)"/>
<path d="M0 0 C4.49623372 4.73073117 5.55175153 9.18322529 5.46875 15.60546875 C4.86923913 18.66797013 3.90320604 20.52294225 2 23 C-0.48828125 24.36328125 -0.48828125 24.36328125 -3.3125 25.3125 C-4.69888672 25.80169922 -4.69888672 25.80169922 -6.11328125 26.30078125 C-9.17614774 27.04266637 -11.86050402 27.12520885 -15 27 C-15.08636719 26.0821875 -15.17273438 25.164375 -15.26171875 24.21875 C-16.4537578 13.71411621 -16.4537578 13.71411621 -22 5 C-27.2426435 0.90818068 -33.64398204 1.27289769 -40 2 C-47.15852549 3.90249101 -51.33384476 7.41844803 -55.08203125 13.859375 C-63.60242303 30.8363354 -64.32938787 56.80668597 -59.25 74.875 C-58.55638688 76.93650518 -57.81508723 78.98343471 -57 81 C-56.69964844 81.80824219 -56.39929688 82.61648438 -56.08984375 83.44921875 C-53.17719258 90.27062257 -47.87044706 94.60149647 -41.06323242 97.38696289 C-32.01742694 100.07469423 -19.61092036 99.44718982 -11.125 95.5 C-6.12074828 92.5031845 -2.39780886 88.71386159 1 84 C3.40566625 85.72907261 4.82155168 87.09574745 5.40625 90.05859375 C5.66498485 96.45150074 3.88168635 99.79723439 -0.40234375 104.55859375 C-9.0442708 113.03148556 -21.9045715 114.23268373 -33.41674805 114.17626953 C-46.89995868 113.98942193 -59.12919407 110.61596507 -69.19140625 101.09765625 C-83.84368938 84.10353953 -85.17475115 61.35260818 -84 40 C-82.61372742 24.97292683 -77.55199223 9.29333622 -65.8359375 -0.87890625 C-47.51833173 -13.79184742 -17.75691171 -14.50091845 0 0 Z " fill="#040404" transform="translate(953,749)"/>
<path d="M0 0 C2.25511539 0.12281239 4.51032918 0.24382803 6.765625 0.36328125 C7.95349609 0.4298291 9.14136719 0.49637695 10.36523438 0.56494141 C15.38501064 0.8161954 20.40541616 0.94807489 25.42944336 1.08325195 C39.04505029 1.45476861 52.51827575 2.33972068 66.0625 3.75 C66.26806398 18.45353466 65.74880113 33.09557592 65.00048828 47.77954102 C64.87402598 50.3243896 64.75600863 52.86967045 64.64599609 55.4152832 C64.48502989 59.13863576 64.30003101 62.86009496 64.109375 66.58203125 C64.0643988 67.71639114 64.01942261 68.85075104 63.9730835 70.01948547 C63.62821165 76.13311487 63.19958814 80.11282956 59.0625 84.75 C54.34146221 88.0437473 49.66068552 88.66296574 44.0625 87.75 C40.10460537 85.69775834 37.3448082 83.57731229 35.0625 79.75 C34.71679688 76.74389648 34.71679688 76.74389648 34.78125 73.18359375 C34.79200562 72.53353867 34.80276123 71.88348358 34.81384277 71.21372986 C35.01625971 62.72377616 35.80159699 54.26669422 36.5625 45.8125 C36.70762055 44.1465356 36.85215497 42.48052004 36.99609375 40.81445312 C37.34483595 36.79234928 37.70140593 32.77101295 38.0625 28.75 C36.27803467 28.75785522 36.27803467 28.75785522 34.45751953 28.76586914 C30.003263 28.78410074 25.5490097 28.7954978 21.09472656 28.80493164 C19.17447351 28.80993062 17.2542242 28.816732 15.33398438 28.82543945 C12.55858428 28.83770084 9.78323493 28.84327281 7.0078125 28.84765625 C6.1626004 28.85281754 5.31738831 28.85797882 4.44656372 28.86329651 C-11.45115241 28.86476069 -11.45115241 28.86476069 -15.9375 25.5 C-19.57470959 20.49883681 -20.89237922 15.96260927 -19.9375 9.75 C-18.64482625 6.23532487 -16.82010972 3.52184396 -13.9765625 1.03515625 C-9.31194853 -0.93741187 -4.9865605 -0.33290351 0 0 Z " fill="#7D7D7D" transform="translate(1135.9375,688.25)"/>
<path d="M0 0 C3.3 0 6.6 0 10 0 C10 8.91 10 17.82 10 27 C19.9 27 29.8 27 40 27 C40 31.29 40 35.58 40 40 C30.1 40 20.2 40 10 40 C10.04045181 50.37135519 10.09771584 60.74225383 10.18390274 71.11333179 C10.2232727 75.92997842 10.25551232 80.74644509 10.27099609 85.56323242 C10.28623207 90.21892972 10.32079947 94.87413194 10.36830902 99.52960777 C10.38305163 101.29839441 10.39103689 103.06725175 10.39188385 104.83609962 C10.11482492 120.95535299 10.11482492 120.95535299 17.5703125 134.671875 C22.41027364 136.54611963 26.73755711 136.43099392 31.875 136.25 C32.84953125 136.23195313 33.8240625 136.21390625 34.828125 136.1953125 C37.21917673 136.14842913 39.60971873 136.07669352 42 136 C42 139.3 42 142.6 42 146 C30.89142629 150.44342948 15.33079107 151.3581585 3.97265625 147.03125 C-3.14928651 143.30809577 -6.50915335 138.54172764 -9 131 C-11.60501984 121.27333309 -11.25738154 111.40255502 -11.1953125 101.42578125 C-11.19157513 99.64788473 -11.18873159 97.86998612 -11.18673706 96.09208679 C-11.17915756 91.4479081 -11.15955892 86.80385759 -11.1373291 82.159729 C-11.1167472 77.40663384 -11.10770913 72.65351765 -11.09765625 67.90039062 C-11.0763068 58.60019548 -11.04117203 49.30012853 -11 40 C-16.61 40 -22.22 40 -28 40 C-28 37.03 -28 34.06 -28 31 C-27.13117187 30.76925781 -26.26234375 30.53851562 -25.3671875 30.30078125 C-14.88426994 27.47092226 -14.88426994 27.47092226 -7.64453125 19.84375 C-4.75364381 14.48585892 -3.00251913 9.05695429 -1.578125 3.15234375 C-1 1 -1 1 0 0 Z " fill="#040404" transform="translate(991,714)"/>
<path d="M0 0 C1.04784668 0.04954834 2.09569336 0.09909668 3.17529297 0.15014648 C4.86936279 0.2537146 4.86936279 0.2537146 6.59765625 0.359375 C9.03639553 0.481727 11.47520064 0.60277241 13.9140625 0.72265625 C15.1839502 0.7892041 16.45383789 0.85575195 17.76220703 0.92431641 C22.91288318 1.16884932 28.06405781 1.30478648 33.21850586 1.44262695 C46.43912376 1.80373511 59.51951223 2.61546072 72.66015625 4.109375 C72.42623277 13.11349034 72.05788929 22.11127737 71.66015625 31.109375 C71.61868469 32.06581909 71.57721313 33.02226318 71.53448486 34.00769043 C71.24840822 40.53477189 70.9306586 47.05945004 70.58267212 53.58352661 C70.46784666 55.80550993 70.36119042 58.02793077 70.26278687 60.2507019 C70.1205951 63.4200325 69.94846228 66.58646453 69.76953125 69.75390625 C69.73287857 70.70921234 69.69622589 71.66451843 69.65846252 72.64877319 C69.26947169 78.80749994 68.18197188 81.83593957 63.66015625 86.109375 C59.25000902 88.31444861 53.4601494 87.54626758 48.66015625 87.109375 C45.41390706 85.86850801 43.25073357 84.29052965 41.66015625 81.109375 C40.70350099 63.687211 42.76503094 46.39903332 44.66015625 29.109375 C43.4086377 29.11723022 43.4086377 29.11723022 42.13183594 29.12524414 C14.13060437 29.27738288 14.13060437 29.27738288 2.03515625 28.859375 C1.24463867 28.84527588 0.45412109 28.83117676 -0.36035156 28.81665039 C-5.26027783 28.59920125 -7.94076704 27.67271936 -11.33984375 24.109375 C-13.55976991 20.88344 -13.63772263 18.03672406 -13.65234375 14.171875 C-13.66910156 13.15222656 -13.68585938 12.13257813 -13.703125 11.08203125 C-13.27982161 7.61822608 -12.47537996 5.85905234 -10.33984375 3.109375 C-6.72842546 0.51381323 -4.42197616 -0.24789571 0 0 Z " fill="#7C7C7C" transform="translate(1174.33984375,646.890625)"/>
<path d="M0 0 C31.96031442 0 31.96031442 0 41.50390625 7.4609375 C49.481825 15.66798708 50.34795209 26.54084003 50.3125 37.375 C50.32861328 38.35210938 50.34472656 39.32921875 50.36132812 40.3359375 C50.36778825 50.05196269 48.35837989 59.38302049 42 67 C29.55817648 78.35663404 17.14836508 76 0 76 C0 50.92 0 25.84 0 0 Z " fill="#FCFCFC" transform="translate(383,712)"/>
<path d="M0 0 C13.2 0 26.4 0 40 0 C40.0093457 2.95710937 40.01869141 5.91421875 40.02832031 8.9609375 C40.06212528 18.74391583 40.11769401 28.52668401 40.18390274 38.30949402 C40.22336962 44.23938078 40.25556216 50.16911921 40.27099609 56.09912109 C40.28616758 61.82459837 40.32062266 67.54966783 40.36830902 73.27496338 C40.3831176 75.45652721 40.39104071 77.63814926 40.39188385 79.81976318 C40.39425675 82.8815837 40.42136364 85.94228019 40.45410156 89.00390625 C40.4490712 89.90086716 40.44404083 90.79782806 40.43885803 91.7219696 C40.53276833 97.41888857 41.40584363 102.40394139 45 107 C48.52895192 109.17401364 51.63427777 109.37805667 55.75 109.625 C56.92046875 109.69976563 58.0909375 109.77453125 59.296875 109.8515625 C60.63492188 109.92503906 60.63492188 109.92503906 62 110 C62 113.3 62 116.6 62 120 C40.88 120 19.76 120 -2 120 C-2 116.7 -2 113.4 -2 110 C-0.80503906 109.94392578 -0.80503906 109.94392578 0.4140625 109.88671875 C8.65892872 109.48088711 8.65892872 109.48088711 16 106 C18.60213913 102.31068574 18.30261109 98.26789747 18.30639648 93.93017578 C18.31472 93.1199295 18.32304352 92.30968323 18.33161926 91.47488403 C18.35570032 88.7983112 18.36448884 86.12198214 18.37109375 83.4453125 C18.38006124 81.58210172 18.3891831 79.71889168 18.39845276 77.85568237 C18.41493995 73.95015717 18.42264243 70.04471767 18.42553711 66.13916016 C18.43092189 61.13984807 18.4686069 56.1413436 18.51428127 51.1422596 C18.54405379 47.2937426 18.5512607 43.44542009 18.55226326 39.59679794 C18.55646486 37.75401992 18.56889679 35.91124128 18.58978081 34.06857681 C18.61670102 31.48798815 18.61186883 28.90927164 18.59936523 26.32861328 C18.61419952 25.57100708 18.62903381 24.81340088 18.64431763 24.03283691 C18.5646495 18.24553703 16.97336701 15.90337846 13 12 C10.43106162 10.71553081 8.23423663 10.67022856 5.375 10.4375 C4.37210938 10.35371094 3.36921875 10.26992188 2.3359375 10.18359375 C1.17964844 10.09271484 1.17964844 10.09271484 0 10 C0 6.7 0 3.4 0 0 Z " fill="#040404" transform="translate(801,741)"/>
<path d="M0 0 C9.42729916 5.62393373 12.6723175 13.76703258 15.29296875 24.03125 C15.7015301 29.03612656 15.54296875 34.07222515 15.54296875 39.09375 C-1.61703125 39.09375 -18.77703125 39.09375 -36.45703125 39.09375 C-35.37644066 26.12666296 -33.9587249 12.61865332 -23.62109375 3.46875 C-16.8601906 -1.55200508 -8.03828785 -2.96483749 0 0 Z " fill="#F8F8F8" transform="translate(624.45703125,751.90625)"/>
<path d="M0 0 C3.18375844 1.63736148 5.21427638 3.96427342 7.375 6.8125 C9.2041583 13.21455406 8.11173467 18.33219757 5 24 C1.81414976 26.9867346 -0.95344161 27.90126808 -5.3125 28.3125 C-10.59592627 27.86475201 -13.41484093 25.79651361 -16.875 21.875 C-18.56358494 17.55972739 -18.66646131 13.57002039 -18 9 C-13.89686094 0.94026257 -8.77437757 -1.49468892 0 0 Z " fill="#080808" transform="translate(835,691)"/>
</svg>
