<svg version="1.1" id="Layer_1" xmlns="http://www.w3.org/2000/svg" xmlns:xlink="http://www.w3.org/1999/xlink" x="0px" y="0px"
	 width="100%" viewBox="0 0 2000 2000" enable-background="new 0 0 2000 2000" xml:space="preserve">
<path fill="#FFFFFF" opacity="1.000000" stroke="none" 
	d="
M1807.000000,2001.000000 
	C1204.666626,2001.000000 602.833313,2001.000000 1.000000,2001.000000 
	C1.000000,1334.333374 1.000000,667.666687 1.000000,1.000000 
	C667.666687,1.000000 1334.333374,1.000000 2001.000000,1.000000 
	C2001.000000,667.666687 2001.000000,1334.333374 2001.000000,2001.000000 
	C1936.500000,2001.000000 1872.000000,2001.000000 1807.000000,2001.000000 
M985.093811,1139.656128 
	C1002.746948,1132.536987 1015.840820,1120.372070 1024.809937,1102.494019 
	C1025.470947,1104.499878 1025.832031,1105.372437 1026.046265,1106.279785 
	C1028.375488,1116.146118 1030.779663,1125.996460 1032.930786,1135.901855 
	C1033.531860,1138.669800 1034.567871,1139.727417 1037.529907,1139.646729 
	C1045.520874,1139.428833 1053.521851,1139.572144 1061.518799,1139.572144 
	C1066.794556,1139.572144 1072.070312,1139.572144 1077.506348,1139.572144 
	C1077.506348,1046.006470 1077.506348,953.103210 1077.506348,859.951904 
	C1060.089111,859.951904 1042.856323,859.951904 1025.208252,859.951904 
	C1025.208252,899.948425 1025.208252,939.652405 1025.208252,979.356323 
	C1023.283325,977.251831 1022.213562,974.916626 1021.009827,972.652649 
	C1015.118164,961.571350 1007.178284,952.412415 996.410400,945.711731 
	C982.409973,936.999634 967.038574,934.630310 950.941589,935.236816 
	C913.456177,936.649048 888.385803,955.805725 877.877136,991.860291 
	C868.925293,1022.573181 868.955933,1053.637939 876.472900,1084.633911 
	C880.766602,1102.339233 888.678162,1118.291748 903.852173,1129.187256 
	C928.635742,1146.983154 955.992310,1147.845459 985.093811,1139.656128 
M264.776825,871.517822 
	C264.776825,960.745056 264.776825,1049.972290 264.776825,1139.226562 
	C281.951141,1139.226562 298.503235,1139.226562 315.466888,1139.226562 
	C315.466888,1106.645752 315.466888,1074.403687 315.466888,1041.670654 
	C317.658813,1041.670654 319.455078,1041.670776 321.251312,1041.670776 
	C339.077484,1041.670776 356.918976,1042.119629 374.724426,1041.511963 
	C386.479187,1041.110718 398.463135,1040.388062 409.853119,1037.715332 
	C438.832397,1030.915283 460.345276,1014.522766 470.608459,985.594177 
	C475.890961,970.704529 476.254547,955.210815 474.875122,939.697754 
	C472.133026,908.859985 459.502899,884.160889 430.392426,870.145203 
	C417.169342,863.778809 403.041656,860.307007 388.485718,860.130371 
	C348.008453,859.639404 307.523560,859.774719 267.041656,859.677307 
	C266.401978,859.675720 265.761841,859.860046 264.776825,860.010254 
	C264.776825,863.570862 264.776825,867.049194 264.776825,871.517822 
M815.825317,1118.328369 
	C829.517456,1104.461548 837.433594,1087.906128 839.336487,1068.191162 
	C822.794189,1068.191162 806.530151,1068.191162 790.290710,1068.191162 
	C785.640625,1093.116333 760.897156,1106.211914 731.759521,1101.133179 
	C706.250122,1096.686890 690.277832,1074.358276 691.781555,1043.524170 
	C741.098022,1043.524170 790.448181,1043.524170 840.368835,1043.524170 
	C839.901672,1034.420532 839.917725,1025.902832 838.951599,1017.497864 
	C835.493835,987.416748 821.454041,963.738037 795.250183,947.967712 
	C775.099243,935.840271 753.046326,932.523621 729.912659,934.931641 
	C702.740051,937.760071 679.952087,949.079346 663.826538,971.357300 
	C640.735840,1003.257874 638.006042,1038.700439 648.871277,1075.522217 
	C658.383362,1107.758301 678.330078,1130.824341 711.475342,1140.126465 
	C721.590515,1142.965454 732.441284,1143.968994 743.000916,1144.285400 
	C770.230591,1145.101074 795.024475,1138.118408 815.825317,1118.328369 
M1370.274048,1117.772949 
	C1386.033691,1102.378540 1395.385864,1083.987549 1397.229492,1061.430542 
	C1388.841187,1061.430542 1381.196777,1061.430542 1373.552490,1061.430542 
	C1365.930908,1061.430542 1358.309448,1061.430542 1351.082642,1061.430542 
	C1349.367798,1066.265381 1348.266235,1070.660034 1346.318237,1074.640259 
	C1337.996582,1091.642578 1323.167358,1099.002197 1305.264160,1100.395020 
	C1277.039307,1102.590820 1256.484009,1091.760742 1247.598633,1064.335449 
	C1242.619629,1048.967773 1242.035889,1033.130859 1246.263062,1017.537720 
	C1251.436279,998.455261 1263.491089,985.166443 1283.029419,980.657776 
	C1291.767822,978.641418 1301.242188,978.563843 1310.257324,979.251160 
	C1330.591187,980.801514 1344.702026,992.931335 1349.809692,1011.804749 
	C1350.098999,1012.873291 1350.396240,1013.939758 1350.675415,1014.954834 
	C1366.266357,1014.954834 1381.532104,1014.954834 1397.088867,1014.954834 
	C1396.976807,1013.092651 1397.023193,1011.450317 1396.760376,1009.858887 
	C1393.441162,989.751709 1384.173950,972.870300 1368.999878,959.288696 
	C1346.754883,939.378052 1320.045654,933.233948 1291.146729,935.041260 
	C1253.672485,937.384949 1224.662598,954.127197 1206.977905,987.849792 
	C1193.663574,1013.238708 1191.089600,1040.424683 1196.665527,1068.402100 
	C1201.463379,1092.475342 1213.787598,1111.916626 1233.878784,1126.017212 
	C1252.290039,1138.938721 1273.236328,1144.090698 1295.526245,1144.455078 
	C1323.523438,1144.912476 1348.804932,1137.736938 1370.274048,1117.772949 
M1440.607056,1069.499634 
	C1440.738281,1078.992188 1440.561768,1088.500854 1441.061157,1097.973999 
	C1442.295776,1121.388550 1453.783447,1134.700195 1476.730957,1138.463379 
	C1485.038818,1139.825928 1493.661133,1139.409912 1502.143921,1139.531250 
	C1513.089966,1139.687866 1524.040039,1139.569458 1535.250244,1139.569458 
	C1535.250244,1126.154907 1535.250244,1113.244385 1535.250244,1099.901733 
	C1519.523315,1099.901733 1503.945801,1099.901733 1488.120239,1099.901733 
	C1488.120239,1056.770874 1488.120239,1014.070923 1488.120239,971.004639 
	C1503.564697,971.004639 1518.822754,971.004639 1534.245117,971.004639 
	C1534.245117,958.897400 1534.245117,947.157959 1534.245117,935.021667 
	C1518.695435,935.021667 1503.444580,935.021667 1487.804810,935.021667 
	C1487.804810,917.553101 1487.804810,900.478699 1487.804810,883.265320 
	C1474.019531,883.265320 1460.632935,883.265320 1446.943848,883.265320 
	C1446.943848,886.003052 1447.198608,888.507141 1446.898560,890.942993 
	C1445.764282,900.154602 1444.991089,909.459900 1443.054321,918.510010 
	C1441.025391,927.989685 1434.313965,933.081726 1424.670166,934.125244 
	C1419.773560,934.655090 1414.863159,935.058533 1410.019165,935.513489 
	C1410.019165,947.421875 1410.019165,959.021729 1410.019165,971.090210 
	C1420.296631,971.090210 1430.369751,971.090210 1440.607056,971.090210 
	C1440.607056,1003.873718 1440.607056,1036.186646 1440.607056,1069.499634 
M1697.327881,991.928101 
	C1700.522461,992.541931 1701.150391,991.058777 1701.125488,988.085571 
	C1700.986328,971.420654 1701.064087,954.753906 1701.042969,938.087830 
	C1701.041748,937.156738 1700.820312,936.225891 1700.685303,935.169250 
	C1660.403931,933.829834 1631.031494,948.850586 1617.246826,989.648682 
	C1615.972656,970.856812 1614.776245,953.211365 1613.573364,935.471191 
	C1597.652954,935.471191 1582.115723,935.471191 1566.534180,935.471191 
	C1566.534180,1003.572449 1566.534180,1071.321777 1566.534180,1139.321289 
	C1583.391846,1139.321289 1599.981689,1139.321289 1617.033447,1139.321289 
	C1617.033447,1137.364990 1617.033325,1135.578857 1617.033325,1133.792725 
	C1617.033325,1110.626831 1616.947266,1087.460449 1617.076660,1064.295288 
	C1617.126831,1055.310791 1617.277466,1046.295288 1618.056641,1037.352661 
	C1619.920044,1015.967651 1630.755127,1002.865784 1651.327515,996.745117 
	C1666.019897,992.373840 1681.172729,991.878540 1697.327881,991.928101 
M494.933533,1033.500000 
	C494.933533,1068.741821 494.933533,1103.983643 494.933533,1139.279785 
	C512.104126,1139.279785 528.681641,1139.279785 545.700439,1139.279785 
	C545.700439,1135.702637 545.693176,1132.411255 545.701477,1129.119995 
	C545.773010,1100.804565 545.487183,1072.482178 546.026001,1044.175537 
	C546.525879,1017.910645 557.880920,1002.723633 580.942139,996.385559 
	C587.161194,994.676392 593.648804,993.657776 600.081238,993.078491 
	C609.799316,992.203369 619.577087,991.992004 629.478027,991.491028 
	C629.478027,972.778564 629.478027,954.202087 629.478027,935.190247 
	C589.430176,933.790161 560.000427,948.480835 545.787292,989.459595 
	C544.486389,970.352600 543.293213,952.828003 542.105591,935.384888 
	C526.114563,935.384888 510.693359,935.384888 494.933533,935.384888 
	C494.933533,967.932678 494.933533,1000.216370 494.933533,1033.500000 
M1115.939941,1092.500000 
	C1115.939941,1108.083252 1115.939941,1123.666626 1115.939941,1139.260254 
	C1133.132324,1139.260254 1149.705200,1139.260254 1166.337280,1139.260254 
	C1166.337280,1071.088745 1166.337280,1003.231567 1166.337280,935.395996 
	C1149.410522,935.395996 1132.829346,935.395996 1115.939941,935.395996 
	C1115.939941,987.615479 1115.939941,1039.557739 1115.939941,1092.500000 
M1674.929321,1107.596924 
	C1674.968628,1109.592651 1674.908447,1111.596069 1675.063110,1113.582886 
	C1676.162720,1127.705200 1683.468628,1136.836182 1695.667480,1138.724365 
	C1700.223755,1139.429321 1704.971436,1139.567261 1709.570679,1139.199097 
	C1723.906128,1138.051392 1730.821167,1131.762817 1733.648071,1117.696777 
	C1734.202026,1114.940063 1734.433716,1112.082397 1734.479614,1109.265869 
	C1734.754761,1092.385986 1726.782227,1081.063965 1712.195190,1079.439453 
	C1691.098633,1077.089966 1676.895752,1081.864624 1674.929321,1107.596924 
M1148.699463,908.249512 
	C1158.278931,907.371033 1164.722168,902.141785 1166.616211,892.956970 
	C1167.993164,886.280457 1168.533203,879.022949 1167.468384,872.339722 
	C1165.487427,859.906372 1158.422729,854.543701 1145.787964,853.935486 
	C1142.639893,853.783936 1139.469116,853.786621 1136.322998,853.966797 
	C1123.713135,854.689148 1115.945068,861.501221 1114.140625,874.049988 
	C1113.465454,878.744568 1113.372681,883.750000 1114.228027,888.390076 
	C1115.981934,897.907166 1120.557983,905.817139 1131.010010,907.685181 
	C1136.483765,908.663574 1142.214966,908.201965 1148.699463,908.249512 
z"/>
<path fill="#020202" opacity="1.000000" stroke="none" 
	d="
M984.731079,1139.793457 
	C955.992310,1147.845459 928.635742,1146.983154 903.852173,1129.187256 
	C888.678162,1118.291748 880.766602,1102.339233 876.472900,1084.633911 
	C868.955933,1053.637939 868.925293,1022.573181 877.877136,991.860291 
	C888.385803,955.805725 913.456177,936.649048 950.941589,935.236816 
	C967.038574,934.630310 982.409973,936.999634 996.410400,945.711731 
	C1007.178284,952.412415 1015.118164,961.571350 1021.009827,972.652649 
	C1022.213562,974.916626 1023.283325,977.251831 1025.208252,979.356323 
	C1025.208252,939.652405 1025.208252,899.948425 1025.208252,859.951904 
	C1042.856323,859.951904 1060.089111,859.951904 1077.506348,859.951904 
	C1077.506348,953.103210 1077.506348,1046.006470 1077.506348,1139.572144 
	C1072.070312,1139.572144 1066.794556,1139.572144 1061.518799,1139.572144 
	C1053.521851,1139.572144 1045.520874,1139.428833 1037.529907,1139.646729 
	C1034.567871,1139.727417 1033.531860,1138.669800 1032.930786,1135.901855 
	C1030.779663,1125.996460 1028.375488,1116.146118 1026.046265,1106.279785 
	C1025.832031,1105.372437 1025.470947,1104.499878 1024.809937,1102.494019 
	C1015.840820,1120.372070 1002.746948,1132.536987 984.731079,1139.793457 
M925.227295,1011.927002 
	C921.095093,1026.013306 919.871155,1040.329712 921.994324,1054.875488 
	C923.613647,1065.969727 926.058716,1076.779663 933.309082,1085.843018 
	C944.228638,1099.493286 959.308289,1102.316284 975.471497,1101.691040 
	C999.879150,1100.746704 1015.679626,1088.546387 1021.729431,1065.856689 
	C1026.458008,1048.122070 1026.280273,1030.259277 1020.939636,1012.642639 
	C1015.638977,995.157837 1004.091492,984.181152 985.809570,981.470276 
	C978.966797,980.455688 971.833374,980.481812 964.917358,981.056091 
	C945.505676,982.667786 932.047974,992.502441 925.227295,1011.927002 
z"/>
<path fill="#010101" opacity="1.000000" stroke="none" 
	d="
M264.776825,871.022705 
	C264.776825,867.049194 264.776825,863.570862 264.776825,860.010254 
	C265.761841,859.860046 266.401978,859.675720 267.041656,859.677307 
	C307.523560,859.774719 348.008453,859.639404 388.485718,860.130371 
	C403.041656,860.307007 417.169342,863.778809 430.392426,870.145203 
	C459.502899,884.160889 472.133026,908.859985 474.875122,939.697754 
	C476.254547,955.210815 475.890961,970.704529 470.608459,985.594177 
	C460.345276,1014.522766 438.832397,1030.915283 409.853119,1037.715332 
	C398.463135,1040.388062 386.479187,1041.110718 374.724426,1041.511963 
	C356.918976,1042.119629 339.077484,1041.670776 321.251312,1041.670776 
	C319.455078,1041.670776 317.658813,1041.670654 315.466888,1041.670654 
	C315.466888,1074.403687 315.466888,1106.645752 315.466888,1139.226562 
	C298.503235,1139.226562 281.951141,1139.226562 264.776825,1139.226562 
	C264.776825,1049.972290 264.776825,960.745056 264.776825,871.022705 
M426.578400,972.925415 
	C427.586975,967.887390 429.181580,962.886536 429.503510,957.805054 
	C430.961578,934.790100 424.212769,917.668640 405.687744,908.701050 
	C399.073242,905.499084 391.645630,902.618347 384.448181,902.234497 
	C363.034302,901.092590 341.550476,901.258179 320.093658,900.934631 
	C318.648743,900.912842 317.201050,901.072388 315.736694,901.148438 
	C315.736694,935.623413 315.736694,969.795166 315.736694,1004.251343 
	C329.904663,1004.251343 343.710724,1004.405762 357.511383,1004.197815 
	C366.978271,1004.055298 376.580627,1004.296448 385.869812,1002.799011 
	C403.949158,999.884705 418.989319,991.939087 426.578400,972.925415 
z"/>
<path fill="#020202" opacity="1.000000" stroke="none" 
	d="
M815.574341,1118.575684 
	C795.024475,1138.118408 770.230591,1145.101074 743.000916,1144.285400 
	C732.441284,1143.968994 721.590515,1142.965454 711.475342,1140.126465 
	C678.330078,1130.824341 658.383362,1107.758301 648.871277,1075.522217 
	C638.006042,1038.700439 640.735840,1003.257874 663.826538,971.357300 
	C679.952087,949.079346 702.740051,937.760071 729.912659,934.931641 
	C753.046326,932.523621 775.099243,935.840271 795.250183,947.967712 
	C821.454041,963.738037 835.493835,987.416748 838.951599,1017.497864 
	C839.917725,1025.902832 839.901672,1034.420532 840.368835,1043.524170 
	C790.448181,1043.524170 741.098022,1043.524170 691.781555,1043.524170 
	C690.277832,1074.358276 706.250122,1096.686890 731.759521,1101.133179 
	C760.897156,1106.211914 785.640625,1093.116333 790.290710,1068.191162 
	C806.530151,1068.191162 822.794189,1068.191162 839.336487,1068.191162 
	C837.433594,1087.906128 829.517456,1104.461548 815.574341,1118.575684 
M737.094971,975.704895 
	C710.920837,976.199463 695.148438,996.772644 693.401611,1020.625732 
	C725.178833,1020.625732 756.946472,1020.625732 789.083435,1020.625732 
	C788.644531,1017.796875 788.317505,1015.193726 787.828735,1012.621216 
	C784.987671,997.668701 777.464722,986.088318 763.388123,979.475220 
	C755.349182,975.698608 746.703735,975.255676 737.094971,975.704895 
z"/>
<path fill="#020202" opacity="1.000000" stroke="none" 
	d="
M1370.015015,1118.015869 
	C1348.804932,1137.736938 1323.523438,1144.912476 1295.526245,1144.455078 
	C1273.236328,1144.090698 1252.290039,1138.938721 1233.878784,1126.017212 
	C1213.787598,1111.916626 1201.463379,1092.475342 1196.665527,1068.402100 
	C1191.089600,1040.424683 1193.663574,1013.238708 1206.977905,987.849792 
	C1224.662598,954.127197 1253.672485,937.384949 1291.146729,935.041260 
	C1320.045654,933.233948 1346.754883,939.378052 1368.999878,959.288696 
	C1384.173950,972.870300 1393.441162,989.751709 1396.760376,1009.858887 
	C1397.023193,1011.450317 1396.976807,1013.092651 1397.088867,1014.954834 
	C1381.532104,1014.954834 1366.266357,1014.954834 1350.675415,1014.954834 
	C1350.396240,1013.939758 1350.098999,1012.873291 1349.809692,1011.804749 
	C1344.702026,992.931335 1330.591187,980.801514 1310.257324,979.251160 
	C1301.242188,978.563843 1291.767822,978.641418 1283.029419,980.657776 
	C1263.491089,985.166443 1251.436279,998.455261 1246.263062,1017.537720 
	C1242.035889,1033.130859 1242.619629,1048.967773 1247.598633,1064.335449 
	C1256.484009,1091.760742 1277.039307,1102.590820 1305.264160,1100.395020 
	C1323.167358,1099.002197 1337.996582,1091.642578 1346.318237,1074.640259 
	C1348.266235,1070.660034 1349.367798,1066.265381 1351.082642,1061.430542 
	C1358.309448,1061.430542 1365.930908,1061.430542 1373.552490,1061.430542 
	C1381.196777,1061.430542 1388.841187,1061.430542 1397.229492,1061.430542 
	C1395.385864,1083.987549 1386.033691,1102.378540 1370.015015,1118.015869 
z"/>
<path fill="#020202" opacity="1.000000" stroke="none" 
	d="
M1440.607056,1068.999512 
	C1440.607056,1036.186646 1440.607056,1003.873718 1440.607056,971.090210 
	C1430.369751,971.090210 1420.296631,971.090210 1410.019165,971.090210 
	C1410.019165,959.021729 1410.019165,947.421875 1410.019165,935.513489 
	C1414.863159,935.058533 1419.773560,934.655090 1424.670166,934.125244 
	C1434.313965,933.081726 1441.025391,927.989685 1443.054321,918.510010 
	C1444.991089,909.459900 1445.764282,900.154602 1446.898560,890.942993 
	C1447.198608,888.507141 1446.943848,886.003052 1446.943848,883.265320 
	C1460.632935,883.265320 1474.019531,883.265320 1487.804810,883.265320 
	C1487.804810,900.478699 1487.804810,917.553101 1487.804810,935.021667 
	C1503.444580,935.021667 1518.695435,935.021667 1534.245117,935.021667 
	C1534.245117,947.157959 1534.245117,958.897400 1534.245117,971.004639 
	C1518.822754,971.004639 1503.564697,971.004639 1488.120239,971.004639 
	C1488.120239,1014.070923 1488.120239,1056.770874 1488.120239,1099.901733 
	C1503.945801,1099.901733 1519.523315,1099.901733 1535.250244,1099.901733 
	C1535.250244,1113.244385 1535.250244,1126.154907 1535.250244,1139.569458 
	C1524.040039,1139.569458 1513.089966,1139.687866 1502.143921,1139.531250 
	C1493.661133,1139.409912 1485.038818,1139.825928 1476.730957,1138.463379 
	C1453.783447,1134.700195 1442.295776,1121.388550 1441.061157,1097.973999 
	C1440.561768,1088.500854 1440.738281,1078.992188 1440.607056,1068.999512 
z"/>
<path fill="#020202" opacity="1.000000" stroke="none" 
	d="
M1696.844971,991.928101 
	C1681.172729,991.878540 1666.019897,992.373840 1651.327515,996.745117 
	C1630.755127,1002.865784 1619.920044,1015.967651 1618.056641,1037.352661 
	C1617.277466,1046.295288 1617.126831,1055.310791 1617.076660,1064.295288 
	C1616.947266,1087.460449 1617.033325,1110.626831 1617.033325,1133.792725 
	C1617.033325,1135.578857 1617.033447,1137.364990 1617.033447,1139.321289 
	C1599.981689,1139.321289 1583.391846,1139.321289 1566.534180,1139.321289 
	C1566.534180,1071.321777 1566.534180,1003.572449 1566.534180,935.471191 
	C1582.115723,935.471191 1597.652954,935.471191 1613.573364,935.471191 
	C1614.776245,953.211365 1615.972656,970.856812 1617.246826,989.648682 
	C1631.031494,948.850586 1660.403931,933.829834 1700.685303,935.169250 
	C1700.820312,936.225891 1701.041748,937.156738 1701.042969,938.087830 
	C1701.064087,954.753906 1700.986328,971.420654 1701.125488,988.085571 
	C1701.150391,991.058777 1700.522461,992.541931 1696.844971,991.928101 
z"/>
<path fill="#020202" opacity="1.000000" stroke="none" 
	d="
M494.933533,1033.000000 
	C494.933533,1000.216370 494.933533,967.932678 494.933533,935.384888 
	C510.693359,935.384888 526.114563,935.384888 542.105591,935.384888 
	C543.293213,952.828003 544.486389,970.352600 545.787292,989.459595 
	C560.000427,948.480835 589.430176,933.790161 629.478027,935.190247 
	C629.478027,954.202087 629.478027,972.778564 629.478027,991.491028 
	C619.577087,991.992004 609.799316,992.203369 600.081238,993.078491 
	C593.648804,993.657776 587.161194,994.676392 580.942139,996.385559 
	C557.880920,1002.723633 546.525879,1017.910645 546.026001,1044.175537 
	C545.487183,1072.482178 545.773010,1100.804565 545.701477,1129.119995 
	C545.693176,1132.411255 545.700439,1135.702637 545.700439,1139.279785 
	C528.681641,1139.279785 512.104126,1139.279785 494.933533,1139.279785 
	C494.933533,1103.983643 494.933533,1068.741821 494.933533,1033.000000 
z"/>
<path fill="#030303" opacity="1.000000" stroke="none" 
	d="
M1115.939941,1092.000000 
	C1115.939941,1039.557739 1115.939941,987.615479 1115.939941,935.395996 
	C1132.829346,935.395996 1149.410522,935.395996 1166.337280,935.395996 
	C1166.337280,1003.231567 1166.337280,1071.088745 1166.337280,1139.260254 
	C1149.705200,1139.260254 1133.132324,1139.260254 1115.939941,1139.260254 
	C1115.939941,1123.666626 1115.939941,1108.083252 1115.939941,1092.000000 
z"/>
<path fill="#2FCC41" opacity="1.000000" stroke="none" 
	d="
M1674.941650,1107.129883 
	C1676.895752,1081.864624 1691.098633,1077.089966 1712.195190,1079.439453 
	C1726.782227,1081.063965 1734.754761,1092.385986 1734.479614,1109.265869 
	C1734.433716,1112.082397 1734.202026,1114.940063 1733.648071,1117.696777 
	C1730.821167,1131.762817 1723.906128,1138.051392 1709.570679,1139.199097 
	C1704.971436,1139.567261 1700.223755,1139.429321 1695.667480,1138.724365 
	C1683.468628,1136.836182 1676.162720,1127.705200 1675.063110,1113.582886 
	C1674.908447,1111.596069 1674.968628,1109.592651 1674.941650,1107.129883 
z"/>
<path fill="#020202" opacity="1.000000" stroke="none" 
	d="
M1148.264648,908.320068 
	C1142.214966,908.201965 1136.483765,908.663574 1131.010010,907.685181 
	C1120.557983,905.817139 1115.981934,897.907166 1114.228027,888.390076 
	C1113.372681,883.750000 1113.465454,878.744568 1114.140625,874.049988 
	C1115.945068,861.501221 1123.713135,854.689148 1136.322998,853.966797 
	C1139.469116,853.786621 1142.639893,853.783936 1145.787964,853.935486 
	C1158.422729,854.543701 1165.487427,859.906372 1167.468384,872.339722 
	C1168.533203,879.022949 1167.993164,886.280457 1166.616211,892.956970 
	C1164.722168,902.141785 1158.278931,907.371033 1148.264648,908.320068 
z"/>
<path fill="#FEFEFE" opacity="1.000000" stroke="none" 
	d="
M925.384338,1011.561157 
	C932.047974,992.502441 945.505676,982.667786 964.917358,981.056091 
	C971.833374,980.481812 978.966797,980.455688 985.809570,981.470276 
	C1004.091492,984.181152 1015.638977,995.157837 1020.939636,1012.642639 
	C1026.280273,1030.259277 1026.458008,1048.122070 1021.729431,1065.856689 
	C1015.679626,1088.546387 999.879150,1100.746704 975.471497,1101.691040 
	C959.308289,1102.316284 944.228638,1099.493286 933.309082,1085.843018 
	C926.058716,1076.779663 923.613647,1065.969727 921.994324,1054.875488 
	C919.871155,1040.329712 921.095093,1026.013306 925.384338,1011.561157 
z"/>
<path fill="#FDFDFD" opacity="1.000000" stroke="none" 
	d="
M426.400879,973.276611 
	C418.989319,991.939087 403.949158,999.884705 385.869812,1002.799011 
	C376.580627,1004.296448 366.978271,1004.055298 357.511383,1004.197815 
	C343.710724,1004.405762 329.904663,1004.251343 315.736694,1004.251343 
	C315.736694,969.795166 315.736694,935.623413 315.736694,901.148438 
	C317.201050,901.072388 318.648743,900.912842 320.093658,900.934631 
	C341.550476,901.258179 363.034302,901.092590 384.448181,902.234497 
	C391.645630,902.618347 399.073242,905.499084 405.687744,908.701050 
	C424.212769,917.668640 430.961578,934.790100 429.503510,957.805054 
	C429.181580,962.886536 427.586975,967.887390 426.400879,973.276611 
z"/>
<path fill="#FDFDFD" opacity="1.000000" stroke="none" 
	d="
M737.539551,975.664673 
	C746.703735,975.255676 755.349182,975.698608 763.388123,979.475220 
	C777.464722,986.088318 784.987671,997.668701 787.828735,1012.621216 
	C788.317505,1015.193726 788.644531,1017.796875 789.083435,1020.625732 
	C756.946472,1020.625732 725.178833,1020.625732 693.401611,1020.625732 
	C695.148438,996.772644 710.920837,976.199463 737.539551,975.664673 
z"/>
</svg>